<?xml version="1.0" encoding="UTF-8" standalone="no"?>
<svg
   xmlns:dc="http://purl.org/dc/elements/1.1/"
   xmlns:cc="http://creativecommons.org/ns#"
   xmlns:rdf="http://www.w3.org/1999/02/22-rdf-syntax-ns#"
   xmlns:svg="http://www.w3.org/2000/svg"
   xmlns="http://www.w3.org/2000/svg"
   viewBox="0 0 1297.3333 1202.6667"
   height="1202.6667"
   width="1297.3333"
   xml:space="preserve"
   id="svg2"
   version="1.1"><metadata
     id="metadata8"><rdf:RDF><cc:Work
         rdf:about=""><dc:format>image/svg+xml</dc:format><dc:type
           rdf:resource="http://purl.org/dc/dcmitype/StillImage" /></cc:Work></rdf:RDF></metadata><defs
     id="defs6"><clipPath
       id="clipPath20"
       clipPathUnits="userSpaceOnUse"><path
         id="path18"
         d="m 3.65625,4.25 v 9015.5 H 9728.35 V 4.25 Z" /></clipPath></defs><g
     transform="matrix(1.3333333,0,0,-1.3333333,0,1202.6667)"
     id="g10"><g
       transform="scale(0.1)"
       id="g12"><g
         id="g14"><g
           clip-path="url(#clipPath20)"
           id="g16"><path
             id="path22"
             style="fill:#000000;fill-opacity:1;fill-rule:evenodd;stroke:none"
             d="m 5496.24,6878.74 3.46,42.71 c 53.22,657.94 429.65,1246.51 1004.6,1570.78 l 77.26,43.58 c 13.42,29.5 28.63,58.15 45.53,85.8 21.63,35.12 50.36,65.33 84.34,88.69 33.35,22.52 69.09,41.28 106.58,55.91 25.54,10.41 51.17,20.63 76.86,30.66 23.69,9.04 48.21,15.72 73.21,19.95 l 17.72,3.01 5.09,17.24 c 3.77,12.76 11.03,24.2 20.98,33.03 16.79,14.68 35.01,27.64 54.39,38.68 38.46,22.72 77.76,43.98 117.82,63.74 29.55,13.91 59.73,26.44 90.45,37.54 34.28,12.78 71.99,12.92 106.37,0.42 44.89,-16.05 82.85,-47.11 107.48,-87.93 9.94,-18.92 19.29,-38.15 28.04,-57.65 9.53,-18.87 22.96,-35.51 39.4,-48.79 l 19.66,-15.9 18.31,17.45 c 17.26,16.46 40.32,25.45 64.17,25.04 17.28,0.79 34.53,-2.09 50.61,-8.47 22.5,-10.25 38.49,-30.95 42.71,-55.31 1.49,-7.79 2.22,-15.71 2.19,-23.64 l -0.11,-24.86 24.58,-3.74 C 8508.75,8615.54 9117.65,8108.3 9359.01,7409.61 l 7.39,-21.39 22.53,2.12 c 15.07,1.41 30.25,1.06 45.24,-1.05 12.3,-1.58 24.54,-3.61 36.7,-6.08 25.11,-5.24 46.56,-21.46 58.44,-44.2 17.12,-32.03 14.99,-70.93 -5.54,-100.9 -14.73,-22.02 -31.77,-42.42 -50.82,-60.84 -13.37,-12.81 -27.15,-25.18 -41.31,-37.11 13.45,-72.73 23.43,-146.06 29.91,-219.75 22.74,-5.7 45.4,-11.73 67.97,-18.08 19.37,-5.26 38.48,-11.5 57.22,-18.7 46.98,-17.7 89.22,-46.05 123.42,-82.81 10.53,-11.44 16.93,-26.07 18.19,-41.57 1.47,-20.61 -5.52,-40.92 -19.35,-56.27 -12.93,-13.37 -26.95,-25.64 -41.93,-36.66 -24.64,-18.5 -53.7,-30.2 -84.28,-33.95 -21.96,-2.92 -44.14,-3.81 -66.26,-2.66 -17.62,0.52 -35.21,1.37 -52.79,2.55 l -7.23,-92.36 c 11.99,-14.6 21.94,-30.76 29.56,-48.05 6.53,-14.93 8.86,-31.37 6.72,-47.53 -4.36,-33.16 -28.81,-60.16 -61.37,-67.8 C 9290.43,5651.06 8758.49,5063.76 8050.49,4851.87 7342.48,4639.98 6575.37,4838.49 6059.02,5367.22 l -28.01,39.66 c -6.24,3.57 -11.98,7.98 -17.03,13.1 -202.3,221.23 -351.93,485.36 -437.68,772.61 l -26.61,89.14 -28.78,-10.59 c -20.71,-7.63 -43.42,-7.85 -64.28,-0.63 -30.83,13.08 -61.11,27.4 -90.79,42.92 -29.85,14.72 -59.51,29.83 -88.96,45.34 l -14.66,-11.73 c -5.45,-4.36 -11.5,-7.92 -17.95,-10.58 -11.17,-3.87 -22.37,-7.64 -33.61,-11.3 -35.84,-13.56 -72.51,-24.81 -109.78,-33.68 -37.37,-5.76 -75.05,8.29 -99.53,37.1 -10.86,14.3 -15.66,32.3 -13.35,50.1 4.18,25.21 13.89,49.19 28.44,70.21 11.33,18.05 24.01,35.21 37.95,51.34 l 73.42,84.95 -105.25,-39.13 c -32.01,-11.9 -65.99,-17.59 -100.13,-16.76 -24.39,-0.58 -47.63,10.4 -62.68,29.6 -15.06,19.2 -20.18,44.38 -13.81,67.93 8.27,36.55 29.14,69.03 58.94,91.76 21.99,17.49 44.93,33.76 68.72,48.72 28.18,18.92 55.96,38.43 83.31,58.53 l -45.12,20.62 c -7.93,3.62 -16.12,6.64 -24.5,9.01 -34.93,12.16 -68.68,27.45 -100.86,45.67 -20.99,11.55 -38.13,29.02 -49.26,50.24 -10.14,20.42 -10.66,44.3 -1.42,65.15 9.24,20.84 27.28,36.5 49.22,42.7 14.04,4.5 28.57,7.29 43.28,8.3 71.22,8.15 143.32,3.65 212.98,-13.28 13.43,-3.58 26.59,-8.11 39.37,-13.57 45.75,-20.23 90.6,-42.43 134.43,-66.54 59.73,-33.05 120.15,-64.86 181.21,-95.39 z M 8153.08,7670.39 6546.83,6609.77 c -0.71,0.39 -1.48,0.65 -2.28,0.75 -19.92,3.8 -40.03,6.51 -60.24,8.13 -13.96,0.95 -27.95,-1.2 -40.99,-6.3 -47.18,-20.18 -93.05,-43.33 -137.3,-69.31 -36.59,-21.26 -72.98,-42.84 -109.2,-64.73 -56.61,-32.47 -112.86,-65.58 -168.75,-99.29 -24.28,-14.63 -49.29,-28 -74.95,-40.07 -16.03,-6.24 -33.69,-6.94 -50.17,-1.99 -1.57,1.32 -2.71,3.07 -3.31,5.03 -4.21,11.81 -6.97,24.08 -8.22,36.56 0.01,2.44 -1.13,4.74 -3.06,6.22 -4.28,1.98 -9.26,1.72 -13.31,-0.69 -5.07,-2.82 -8.96,-7.37 -10.97,-12.81 -14.31,-38.82 -11.94,-81.83 6.55,-118.84 5.92,-13.34 12.33,-26.47 19.22,-39.34 8.85,-12.12 16.51,-25.07 22.88,-38.66 2.31,-5.62 2.88,-11.79 1.67,-17.74 -0.69,-2.3 -2.07,-4.32 -3.97,-5.79 -17.2,-13.99 -38.25,-22.42 -60.36,-24.16 -20.43,-1.31 -40.65,4.8 -56.93,17.21 -19.24,15.58 -37.21,32.66 -53.74,51.09 -14.42,15.84 -29.07,31.46 -43.95,46.86 -20.93,21.61 -44.61,40.38 -70.42,55.84 -27.49,16.41 -55.07,32.65 -82.76,48.72 -8.22,3.84 -17.82,3.29 -25.55,-1.47 -8.68,-5 -17.59,-9.57 -26.72,-13.7 -8.36,-3.59 -17.73,-4.06 -26.42,-1.33 -28.6,12.31 -56.71,25.73 -84.26,40.23 -34.43,16.95 -68.56,34.46 -102.41,52.54 -16.14,8.43 -32.73,15.98 -49.7,22.61 -2.49,0.86 -5.21,0.72 -7.6,-0.36 -6.5,-3.07 -11.95,-7.98 -15.65,-14.14 -1.44,-3.2 -1.32,-6.89 0.34,-10 3.11,-5.64 6.91,-10.88 11.29,-15.61 1.22,-1.24 1.71,-3.02 1.29,-4.71 -1.68,-2.24 -3.91,-4.02 -6.47,-5.14 -10.46,-3.56 -20.95,-7.02 -31.47,-10.39 -33.25,-12.7 -67.26,-23.27 -101.85,-31.65 -8.92,-1.36 -18.05,0.14 -26.06,4.29 -6.49,2.32 -12.28,6.25 -16.83,11.43 -1.47,2.12 -2.13,4.68 -1.88,7.24 3.04,16.61 9.68,32.35 19.45,46.12 9.02,14.46 19.02,28.28 29.92,41.38 12.55,11.35 24.83,22.99 36.82,34.93 7.9,10.48 15.19,21.41 21.83,32.73 6.99,10.06 19.76,14.33 31.4,10.52 7.93,-1.35 15.71,-3.5 23.21,-6.41 7.54,-4.8 15.43,-9.03 23.59,-12.66 6.42,-2.28 13.14,-3.64 19.94,-4.04 0.66,-0.13 1.34,0.07 1.83,0.53 0.49,0.46 0.74,1.13 0.66,1.8 -2.34,6.71 -5.91,12.93 -10.52,18.34 -8.31,10.1 -17.59,19.35 -27.7,27.63 -15.12,15.24 -33.26,27.16 -53.24,35 -40.32,11.96 -82.53,16.28 -124.43,12.74 -14.18,-2.95 -28.16,-6.78 -41.86,-11.48 -22.65,-7.86 -46.51,-11.64 -70.48,-11.18 -5.13,0.27 -10.2,1.25 -15.07,2.91 -4.48,1.91 -7.76,5.87 -8.81,10.63 -0.9,3.88 -0.84,7.92 0.17,11.77 5.01,24.32 18.7,45.98 38.52,60.93 44.79,33.51 90.44,65.82 136.93,96.91 8.76,6.23 18.3,11.3 28.37,15.06 1.81,-0.16 3.54,-0.78 5.05,-1.78 17.87,-12.7 35.48,-25.75 52.82,-39.14 1.42,-1.48 2.9,-2.89 4.46,-4.22 0.31,-0.31 0.81,-0.34 1.16,-0.07 5.11,4.34 8.06,10.7 8.08,17.41 -0.07,1.73 -0.47,3.43 -1.19,5 -22.38,47.61 -58.2,87.63 -103.06,115.11 -20.59,14.59 -43.46,25.69 -67.66,32.84 -31.42,11.02 -61.79,24.84 -90.74,41.28 -10.94,5.94 -19.93,14.91 -25.88,25.85 -2.44,5.18 -2.42,11.19 0.06,16.35 2.48,5.16 7.15,8.94 12.72,10.27 10.37,3.44 21.14,5.51 32.05,6.15 26.43,2.56 52.98,3.73 79.53,3.53 38.45,-0.7 76.7,-5.81 114,-15.21 10.47,-2.82 20.74,-6.37 30.72,-10.62 44.04,-19.48 87.22,-40.86 129.42,-64.07 54.5,-30.46 109.73,-59.64 165.62,-87.48 95.16,-44.83 194.57,-80.01 296.74,-105.01 10.85,-1.85 21.93,-1.85 32.78,0.01 13.15,1.47 26.15,4.05 38.86,7.72 -14.4,5.58 -27.46,14.16 -38.3,25.16 -5.06,5.2 -8.52,11.73 -9.96,18.84 -0.2,2.8 0.8,5.55 2.74,7.58 15.7,15.72 32.71,30.06 50.86,42.88 27.35,18.7 53.66,38.88 78.8,60.46 32.16,28.38 64.17,56.91 96.04,85.61 40.79,36.32 79.28,75.14 115.24,116.25 19.5,24.08 36.67,49.95 51.28,77.27 14.03,26.55 29.24,52.46 45.59,77.65 22.88,32.12 49.07,61.75 78.14,88.4 12.29,11.3 26.26,20.61 41.42,27.6 5.29,2.33 10.8,4.15 16.44,5.41 5.17,0.96 10.51,0.17 15.18,-2.23 8.28,-4.48 15.85,-10.19 22.42,-16.93 13.21,-13.49 26.72,-26.69 40.51,-39.58 8.39,-10.05 16.23,-20.54 23.51,-31.41 1.51,-2.58 4.27,-4.17 7.25,-4.18 2.99,-0.02 5.76,1.54 7.29,4.11 2.94,5.8 2.62,12.71 -0.82,18.22 -10.34,16.16 -21.88,31.51 -34.55,45.92 -20.89,22.47 -40.27,46.3 -58.01,71.34 -6.82,10.05 -12.84,20.61 -18.01,31.6 -17.31,36.56 -34.46,73.19 -51.46,109.9 -13.41,29.17 -25.04,59.13 -34.82,89.71 -12.11,36.27 -17.91,74.35 -17.16,112.58 2.19,30.28 9.66,59.94 22.06,87.65 12.1,26.81 25.97,52.78 41.5,77.75 21.49,34.14 42.7,68.46 63.62,102.96 18.54,31.08 39.07,60.93 61.46,89.36 31.09,38.52 60.79,78.14 89.03,118.79 29.04,41.54 49.92,88.21 61.51,137.55 7,30.11 15.17,59.94 24.49,89.42 16.52,44.16 37.22,86.63 61.83,126.84 17.37,28.19 40.42,52.46 67.69,71.24 29.87,20.15 61.88,36.92 95.45,49.99 25.35,10.32 50.76,20.46 76.26,30.42 20.78,7.92 42.32,13.7 64.27,17.27 23.24,4.31 46.52,8.37 69.85,12.17 14.04,1.3 28.06,2.87 42.04,4.71 5.22,0.78 10.26,2.45 14.91,4.94 2.31,2.01 2.94,5.34 1.54,8.06 -5.25,10.42 -16.09,16.83 -27.75,16.43 -6.98,0.31 -13.96,0.67 -20.93,1.07 -3.27,0.23 -6.47,1.05 -9.45,2.4 -3.28,1.73 -5.03,5.43 -4.28,9.07 0.51,2.99 2.01,5.72 4.27,7.75 13.92,12.13 29.03,22.84 45.1,31.96 37.18,21.98 75.18,42.55 113.91,61.67 27.88,13.11 56.35,24.91 85.32,35.37 21.57,8.1 45.33,8.21 66.96,0.3 32.01,-11.38 59.17,-33.34 77.02,-62.24 9.18,-17.65 17.83,-35.57 25.92,-53.75 12.7,-25.62 30.6,-48.31 52.55,-66.64 24.87,-22.74 53.71,-40.71 85.09,-53.02 9.7,-3.66 19.93,-5.73 30.3,-6.14 1.16,0.75 1.75,2.13 1.47,3.49 -0.4,5.42 -0.99,10.83 -1.75,16.21 -0.52,9.32 -1.82,18.59 -3.91,27.69 -0.66,4.99 1.15,10.01 4.84,13.44 6.82,6.87 16.29,10.4 25.94,9.68 9.02,0.79 18.1,-0.33 26.66,-3.27 4.91,-2.61 8.26,-7.4 9.03,-12.9 3.71,-18.14 -0.47,-37 -11.49,-51.89 -12.89,-16.46 -29.13,-30 -47.64,-39.74 -11.46,-6.55 -23.75,-11.52 -36.54,-14.78 -21.94,-2.23 -44.07,-1.86 -65.91,1.13 -6.14,1.38 -12.34,2.5 -18.57,3.34 -7.12,0.64 -14.28,-0.51 -20.84,-3.34 -14.65,-6.52 -28.77,-14.2 -42.21,-22.94 -13.99,-7.95 -27.45,-16.78 -40.32,-26.45 -2.77,-1.72 -5.86,-2.87 -9.09,-3.37 -2.38,-0.03 -4.71,0.71 -6.63,2.12 -3.63,2.87 -7.08,5.95 -10.33,9.24 -9.04,7.61 -17.76,15.59 -26.15,23.91 -7.94,7.59 -18.22,12.26 -29.15,13.24 -2.75,0.15 -5.09,-1.96 -5.24,-4.71 -0.07,-3.35 0.55,-6.67 1.82,-9.77 7.09,-16.58 16.19,-32.23 27.12,-46.57 16.97,-25.98 35.52,-50.89 55.54,-74.6 9.53,-11.62 17.43,-24.48 23.48,-38.23 4.96,-12.91 7.76,-26.54 8.31,-40.36 1.31,-25.62 0.51,-51.3 -2.42,-76.78 -2.36,-22.4 -4.24,-44.84 -5.64,-67.31 -3.29,-62.06 8.39,-124.01 34.06,-180.61 11.82,-23.05 25.05,-45.36 39.63,-66.78 18.58,-29.39 35.9,-59.55 51.9,-90.41 16.54,-28.88 31.64,-58.55 45.27,-88.91 16.51,-38.36 28.5,-78.5 35.72,-119.62 3.22,-20.07 3.67,-40.49 1.31,-60.68 -7.79,-50.47 -22.08,-99.73 -42.5,-146.54 -9.92,-23.95 -20.84,-47.48 -32.74,-70.5 -13.32,-20.7 -28.2,-40.35 -44.52,-58.77 -10.77,-12.62 -20.63,-25.98 -29.51,-40 -1.63,-2.85 -2.8,-5.96 -3.45,-9.18 -0.36,-1.74 -0.08,-3.54 0.76,-5.09 2.07,-3.67 5.6,-6.28 9.72,-7.16 4.12,-0.88 8.42,0.05 11.8,2.56 23.1,19.25 44.13,40.86 62.75,64.48 7.29,9.36 14.02,19.14 20.17,29.28 33.67,56.21 60.95,116.01 81.35,178.27 3.85,15.87 4.65,32.33 2.37,48.49 -0.97,9.44 -0.75,18.96 0.67,28.34 1.47,7.59 6.67,13.94 13.82,16.9 12.26,5.45 24.91,10.01 37.83,13.63 9.21,2.45 18.71,3.56 28.23,3.31 48.57,-1.29 97.09,-4.29 145.45,-9 34.5,-3.69 68.61,-10.41 101.94,-20.08 51.71,-14.54 103.22,-29.8 154.51,-45.78 2.21,-0.69 4.41,-1.39 6.61,-2.13 z m -1361.09,582.17 c 14.48,-1.78 28.85,4.1 37.92,15.53 16.27,20.44 17.88,48.93 4.01,71.07 -5.02,8.01 -12.35,14.31 -21.02,18.08 -8.81,4.17 -18.93,4.59 -28.05,1.15 0.25,21.19 13.16,40.17 32.78,48.18 -4.7,6.04 -10.94,10.7 -18.07,13.47 -8.87,3.12 -18.68,2.03 -26.65,-2.97 -11.2,-7.87 -19.66,-19.03 -24.21,-31.94 -8.95,-23.55 -11.13,-49.13 -6.3,-73.86 2.1,-12.26 6.37,-24.06 12.62,-34.82 3.65,-6.09 8.27,-11.54 13.69,-16.12 6.38,-5.65 14.79,-8.46 23.28,-7.77 z m 336.58,29.25 c 3.98,2.6 7.55,5.77 10.61,9.4 16.27,20.45 17.88,48.93 4.01,71.07 -8.98,14.57 -25.48,22.73 -42.51,21.02 4.5,15.1 15.9,27.17 30.72,32.52 -6.02,7.48 -14.57,12.51 -24.03,14.14 -8.78,1.08 -17.64,-1.36 -24.62,-6.8 -5.71,-4.37 -10.55,-9.78 -14.27,-15.94 -6.21,-10.25 -10.45,-21.58 -12.5,-33.4 -4.64,-23.21 -2.3,-47.28 6.72,-69.18 2.48,-5.91 5.7,-11.48 9.58,-16.59 5.34,-7.22 12.58,-12.82 20.92,-16.16 12.71,-3.37 26.26,0.43 35.37,9.92 z m -321.86,294.66 c 2.96,2.56 5.36,5.69 7.06,9.21 0.9,2.57 0.51,5.41 -1.05,7.63 -1.56,2.23 -4.11,3.56 -6.83,3.58 -3.43,-0.04 -6.79,-0.91 -9.82,-2.53 -6.58,-3.41 -12.76,-7.55 -18.43,-12.32 -26.08,-20.85 -46.28,-48.13 -58.63,-79.15 -2.17,-5.2 -3.78,-10.62 -4.8,-16.16 -0.53,-2.64 -0.38,-5.37 0.45,-7.92 1.41,-3.19 4.72,-5.1 8.18,-4.75 3.04,0.57 5.78,2.19 7.75,4.57 3.76,4.48 6.87,9.48 9.23,14.84 6.63,14.52 14.59,28.41 23.76,41.48 10.3,12.44 21.87,23.76 34.51,33.8 2.95,2.49 5.83,5.06 8.62,7.72 z m 377.92,-73.45 c 1.41,-3.63 3.5,-6.96 6.15,-9.82 1.6,-1.83 4.07,-2.68 6.46,-2.21 4.37,1.46 7.31,5.53 7.33,10.13 0.28,3.71 0.07,7.45 -0.64,11.1 -6.07,30.6 -24.74,57.23 -51.43,73.38 -14.52,9.49 -30.28,16.91 -46.85,22.05 -3.52,1.17 -7.22,1.74 -10.94,1.68 -2.69,0.06 -5.2,-1.38 -6.51,-3.74 -1.82,-4.03 -0.63,-8.79 2.87,-11.48 2.58,-2.45 5.42,-4.6 8.48,-6.4 7.49,-4.19 15.06,-8.21 22.73,-12.06 8.93,-4.49 17.48,-9.7 25.56,-15.58 13.77,-10.39 24.22,-24.57 30.08,-40.79 2.27,-5.41 4.5,-10.83 6.71,-16.26 z m -213.94,-564.37 c 15.91,11.13 26.72,28.16 30,47.3 -1.64,3.3 -4.14,6.11 -7.24,8.12 -3.66,1.32 -7.59,1.73 -11.44,1.2 -3.1,-13.59 -10.32,-25.9 -20.69,-35.23 -6.07,-5.41 -13.92,-8.38 -22.05,-8.37 -6.41,0.27 -12.7,1.79 -18.52,4.46 -15.04,6.62 -28.53,16.31 -39.6,28.44 -3.69,-0.37 -7.24,-1.59 -10.38,-3.55 -1.79,-1.68 -2.81,-4.03 -2.82,-6.49 -0.13,-2.03 -0.15,-4.05 -0.06,-6.08 10.66,-14.14 24.74,-25.35 40.91,-32.57 11.87,-5.41 24.99,-7.5 37.95,-6.08 8.55,1.08 16.74,4.11 23.94,8.85 z m 22.51,-618.92 c 13.72,11.48 23.52,26.96 28.04,44.28 -1.75,3.61 -4.58,6.58 -8.1,8.5 -3.43,0.99 -7.03,1.27 -10.58,0.83 -5.3,-19.5 -18.8,-35.73 -36.99,-44.51 -18.2,-8.77 -39.31,-9.22 -57.87,-1.22 -11.39,4.66 -21.61,11.8 -29.91,20.89 -2.23,0.68 -4.65,0.38 -6.65,-0.83 -2,-1.21 -3.39,-3.21 -3.82,-5.5 -0.43,-4.45 1.08,-8.87 4.13,-12.13 3.04,-3.58 6.68,-6.61 10.76,-8.93 21.62,-11.71 45.92,-17.56 70.5,-17 14.81,0.75 29,6.22 40.49,15.62 z m -86.12,425.07 c -9.43,-0.61 -18.38,-4.36 -25.42,-10.66 -7.15,-6.26 -13.09,-13.77 -17.53,-22.17 -6.61,-12.35 -11.35,-25.61 -14.06,-39.35 -5.96,-29.89 -5.43,-60.71 1.54,-90.38 3.85,-17.74 10.94,-34.63 20.93,-49.79 5.21,-7.95 11.83,-14.87 19.53,-20.43 11.16,-8.36 25.81,-10.42 38.84,-5.48 8.56,3.75 16.03,9.6 21.72,17 7.18,9.23 12.8,19.57 16.61,30.62 10.89,32.03 13.37,66.32 7.19,99.59 -2.97,19.15 -9.28,37.63 -18.65,54.59 -5.07,9.26 -11.71,17.57 -19.62,24.55 -8.45,7.8 -19.58,12.06 -31.08,11.91 z m 1776.4,-1283.34 c -90.3,-381.39 -355.43,-697.73 -715.17,-853.28 -359.74,-155.55 -771.82,-132.05 -1111.54,63.4 14.82,10.69 28.61,22.75 41.18,36.02 23.1,25.38 45.15,51.7 66.09,78.9 29,38.05 58.46,75.77 88.35,113.13 7.34,10.69 14.93,21.21 22.74,31.57 3.53,4.48 7.84,8.27 12.74,11.19 7.8,3.94 16.89,4.43 25.08,1.37 8,-2.55 15.84,-5.6 23.46,-9.15 8.23,-3.85 16.59,-7.39 25.09,-10.62 23.54,-8.94 46.83,-18.54 69.83,-28.78 18.41,-8.1 37.06,-15.64 55.92,-22.62 11.25,-4.08 22.68,-7.66 34.25,-10.73 58.12,-15.23 117.71,-24.15 177.75,-26.58 23.23,-1.01 46.5,0.29 69.46,3.87 14.44,2.11 28.52,6.14 41.89,11.98 2.16,1.69 2.7,4.73 1.27,7.07 -2.68,4.07 -6.27,7.45 -10.49,9.88 -6.97,4.01 -14.63,6.67 -22.59,7.84 -15.09,1.89 -30.31,2.64 -45.52,2.25 -9.39,0.01 -18.78,0.53 -28.12,1.55 -27.03,3.07 -54.07,6.14 -81.1,9.2 -34.51,3.7 -68.77,9.5 -102.58,17.37 -76.27,18.69 -150.32,45.51 -220.87,80 -16.1,7.89 -31.63,16.89 -46.47,26.94 l 1182.79,779.66 c 3.51,-3.51 7.1,-6.95 10.74,-10.33 15.96,-15.42 33.52,-29.1 52.37,-40.81 -6.71,-10.02 -13.55,-19.95 -20.55,-29.77 -14.31,-19.62 -27.11,-40.31 -38.29,-61.87 -14.79,-28.81 -23.87,-60.2 -26.73,-92.45 -2.23,-22.63 0.34,-45.48 7.56,-67.04 8.53,-24.79 24.37,-46.41 45.43,-62.03 35.57,-25.92 80.66,-35.11 123.54,-25.19 21.13,4.9 41.87,11.37 62.03,19.36 27.12,10.94 53.77,23.04 79.86,36.24 28.1,14.44 56.63,28.02 85.56,40.7 12.52,-19.09 32.24,-32.31 54.67,-36.61 3.44,-0.63 6.9,-1.17 10.37,-1.63 z m 721.14,-23.9 c -11.62,9.22 -25.8,14.63 -40.6,15.49 -20.7,1.2 -40.69,8 -57.84,19.67 -12.68,7.38 -25.79,14.01 -39.25,19.87 -12.44,6.73 -25.13,12.99 -38.04,18.78 -4.67,3.14 -9.69,5.73 -14.97,7.7 -0.81,0.31 -1.54,0.81 -2.11,1.46 -4.33,4.82 -9.04,9.29 -14.06,13.38 -14.18,9.93 -29.2,18.6 -44.88,25.91 -11.47,8.33 -22.8,16.86 -33.97,25.59 -19.24,13.03 -40.78,22.29 -63.47,27.28 -11.89,2.78 -23.44,6.88 -34.43,12.2 -26.63,12.88 -57.51,13.71 -84.8,2.3 -7.56,-3 -15.11,-6.01 -22.67,-9.02 -13.01,-3.8 -26.03,-7.6 -39.05,-11.39 -12.34,-4.9 -24.2,-10.9 -35.46,-17.93 -8.95,-5.22 -18.61,-9.12 -28.69,-11.56 -20.94,-4.79 -41.3,-11.84 -60.72,-21.02 -16.54,-3.05 -31.49,-11.76 -42.29,-24.64 -6.97,0.26 -13.91,1 -20.78,2.22 -3.27,0.67 -6.14,2.63 -7.94,5.44 -2.46,4.22 -3.34,9.17 -2.5,13.98 0.53,6.41 4.2,12.15 9.8,15.32 6.39,3.4 13.06,6.22 19.95,8.43 5.92,2.54 12.22,4.1 18.65,4.63 6.88,0.38 13.52,2.63 19.23,6.49 2.79,1.49 5.1,3.74 6.66,6.49 0.44,0.98 0.42,2.12 -0.05,3.09 -3.31,6.71 -8.39,12.37 -14.69,16.39 -4.55,2.98 -9.92,4.47 -15.36,4.25 -5.25,-0.49 -10.38,-1.88 -15.17,-4.1 -7.6,-3.61 -15.03,-7.56 -22.27,-11.85 -12.21,-7.05 -25.15,-12.72 -38.61,-16.9 -15.45,-4.94 -30.78,-10.28 -45.95,-16.03 -33.22,-14.33 -65.94,-29.77 -98.12,-46.31 -24.15,-12.21 -48.79,-23.4 -73.88,-33.53 -16.7,-6.6 -33.86,-11.96 -51.35,-16.02 -22.36,-5.23 -45.89,-0.57 -64.55,12.8 -9.32,6.9 -16.35,16.44 -20.18,27.38 -3.94,11.95 -5.32,24.6 -4.04,37.12 2,23.08 8.46,45.55 19.04,66.17 9.54,18.39 20.47,36.04 32.7,52.77 15.61,21.62 30.32,43.87 44.11,66.7 6.33,8.98 12.28,18.22 17.82,27.71 3.28,5.99 5.6,12.46 6.86,19.17 1.29,9.03 1.03,18.21 -0.77,27.16 -2.47,12.12 -6.64,23.84 -12.4,34.79 -0.53,0.98 -1.47,1.68 -2.56,1.91 -1.09,0.23 -2.23,-0.03 -3.11,-0.7 -6.27,-3.68 -10.96,-9.55 -13.16,-16.47 -1.5,-4.93 -2.95,-9.88 -4.34,-14.83 -1.81,-7.12 -7.01,-12.9 -13.9,-15.44 -4.37,-1.86 -9.35,-1.7 -13.6,0.44 -3.04,1.6 -6.02,3.31 -8.93,5.13 -12.61,8.28 -24.44,17.69 -35.35,28.1 l 404.08,266.36 c 11.7,-0.4 23.41,-0.44 35.12,-0.11 13.32,-0.18 26.47,2.99 38.24,9.22 5.17,2.52 10.5,4.72 15.94,6.58 13.93,3.74 28.54,4.22 42.69,1.42 3.34,-0.63 6.42,-2.23 8.85,-4.6 1.3,-1.08 2.04,-2.69 2,-4.37 -0.03,-1.69 -0.83,-3.26 -2.16,-4.29 -8.39,-7.1 -17.71,-13.03 -27.7,-17.62 11.78,-3.46 23.9,-5.61 36.15,-6.4 9.98,-0.65 20,0.19 29.73,2.48 22.37,5.96 44.12,14.03 64.96,24.12 16.68,7.91 33.19,16.16 49.53,24.76 13.54,7.22 26.54,15.42 38.9,24.52 12.93,9.3 26.25,18.04 39.92,26.21 52.14,30.18 104.35,60.24 156.63,90.19 39.78,22.47 80.86,42.55 123.01,60.15 5.16,2.07 10.49,3.65 15.94,4.71 14.32,2.55 28.95,2.8 43.35,0.73 10.97,-1.39 21.87,-3.2 32.7,-5.39 8.29,-1.75 15.34,-7.15 19.2,-14.7 7.17,-13.18 6.29,-29.29 -2.27,-41.62 -12.53,-18.79 -27.05,-36.17 -43.29,-51.86 -16.78,-16.39 -34.59,-31.7 -53.32,-45.84 -21.1,-15.59 -42.2,-31.17 -63.3,-46.74 -17.28,-12.68 -33.72,-26.48 -49.21,-41.3 -16.1,-15.4 -30.1,-32.85 -41.63,-51.91 -17.73,-30.03 -30.62,-62.67 -38.2,-96.7 -2.58,-11.98 -2.31,-24.4 0.76,-36.26 3.12,-13.25 7.27,-26.24 12.42,-38.84 4.26,-9.76 12.44,-17.26 22.54,-20.64 4.23,-1.79 8.93,-2.18 13.41,-1.12 3.41,0.71 5.8,3.77 5.66,7.24 -0.52,4.07 -1.55,8.07 -3.07,11.88 -2.24,5.59 -3.82,11.42 -4.73,17.37 -0.21,1.59 0,3.2 0.59,4.69 1.91,3.02 5.19,4.9 8.77,5.01 8.99,0.66 18,1.23 27,1.69 22.92,1.37 45.91,0.82 68.74,-1.65 18.04,-2.3 35.99,-5.24 53.82,-8.82 40.69,-8.46 81.05,-18.42 121.01,-29.85 17.68,-4.79 35.1,-10.48 52.2,-17.05 38.65,-14.54 73.41,-37.82 101.56,-68.04 1.75,-1.91 2.84,-4.34 3.1,-6.93 0.25,-4.74 -1.34,-9.39 -4.44,-12.98 -10.44,-10.65 -21.73,-20.42 -33.76,-29.23 -16.7,-12.6 -36.43,-20.55 -57.21,-23.05 -18.86,-2.53 -37.92,-3.27 -56.92,-2.22 -32.15,0.56 -64.2,3.75 -95.84,9.53 -17.48,3.05 -35.05,5.52 -52.7,7.39 -33.36,3.35 -67.04,-0.44 -98.82,-11.12 -15.79,-5.14 -31.28,-11.14 -46.42,-17.97 -3.91,-1.56 -6.87,-4.86 -7.97,-8.92 -1.11,-4.07 -0.24,-8.41 2.35,-11.74 3.47,-4.27 7.54,-8.02 12.07,-11.15 9.33,-6.18 18.76,-12.2 28.29,-18.05 24.07,-17.11 48.29,-34.02 72.65,-50.72 16.9,-11.81 33.09,-24.59 48.5,-38.29 12.43,-11.08 23.82,-23.27 34.04,-36.41 7.42,-9.6 13.65,-20.06 18.55,-31.15 2.32,-5.33 3.14,-11.19 2.36,-16.94 -0.91,-7.21 -5.29,-13.51 -11.73,-16.87 -2.16,-1 -4.36,-1.92 -6.6,-2.76" /><path
             id="path24"
             style="fill:#000000;fill-opacity:1;fill-rule:evenodd;stroke:none"
             d="m 2803.5,2113.86 3.45,42.71 c 17.32,214.93 69.56,425.59 154.67,623.71 85.98,199.34 203.71,383.41 348.61,545.07 144.15,160.36 313.48,296.14 501.33,402 l 77.26,43.58 c 13.42,29.5 28.63,58.15 45.53,85.8 21.62,35.05 50.31,65.22 84.22,88.58 32.84,22.12 67.95,40.64 104.74,55.24 26.07,10.66 52.23,21.09 78.47,31.29 23.79,9.12 48.43,15.85 73.56,20.1 l 17.72,3.01 5.09,17.24 c 3.92,13.24 11.6,25.06 22.1,34.02 17.48,15.03 36.39,28.29 56.47,39.6 36.85,21.69 74.49,42.01 112.83,60.92 30.11,14.29 60.89,27.13 92.24,38.45 34.86,13.02 73.27,12.94 108.09,-0.21 44.15,-16.23 81.46,-47.02 105.75,-87.3 9.95,-18.92 19.3,-38.15 28.05,-57.65 9.52,-18.88 22.95,-35.51 39.39,-48.8 l 19.67,-15.89 18.31,17.45 c 17.26,16.45 40.32,25.45 64.17,25.03 17.28,0.8 34.53,-2.09 50.61,-8.47 22.5,-10.24 38.49,-30.95 42.71,-55.3 1.49,-7.79 2.22,-15.71 2.19,-23.64 l -0.11,-24.86 24.58,-3.74 c 237.56,-36.01 466.61,-114.87 676,-232.73 210.91,-119.29 398.59,-275.63 554.02,-461.52 153.76,-184.64 272.7,-395.68 351.05,-622.82 l 7.39,-21.39 22.52,2.11 c 14.92,1.38 29.95,1.05 44.8,-0.98 12.45,-1.59 24.84,-3.64 37.15,-6.14 25.11,-5.24 46.56,-21.46 58.44,-44.2 17.13,-32.04 14.99,-70.94 -5.54,-100.9 -18.23,-27.13 -39.85,-51.84 -64.32,-73.52 -9.1,-8.33 -18.38,-16.48 -27.82,-24.43 13.45,-72.74 23.43,-146.07 29.92,-219.75 29.23,-7.32 58.32,-15.21 87.24,-23.68 12.8,-3.93 25.45,-8.3 37.95,-13.1 46.98,-17.71 89.22,-46.05 123.41,-82.82 15.27,-16.68 21.56,-39.69 16.89,-61.81 -2.64,-13.42 -8.88,-25.87 -18.05,-36.02 -12.92,-13.38 -26.95,-25.64 -41.93,-36.67 -24.63,-18.49 -53.69,-30.2 -84.27,-33.95 -21.96,-2.91 -44.14,-3.8 -66.26,-2.65 -17.62,0.52 -35.22,1.37 -52.79,2.55 l -7.23,-92.36 c 11.92,-14.47 21.8,-30.5 29.38,-47.65 11.51,-25.14 10.19,-54.28 -3.55,-78.27 -11.15,-18.92 -29.55,-32.45 -50.92,-37.46 C 6693.09,1375.77 6604.89,1150.2 6478.41,945.969 6350.59,740.227 6186.63,559.285 5994.44,411.883 5609.29,118.234 5130.39,-25.0938 4647.25,8.6875 c -241.58,17.5859 -477.98,78.707 -697.8,180.4145 -217.89,101.16 -415.51,241.191 -583.17,413.234 l -28.01,39.656 c -6.25,3.574 -11.98,7.985 -17.04,13.11 -202.29,221.226 -351.92,485.358 -437.67,772.598 l -26.61,89.14 -28.78,-10.59 c -20.71,-7.62 -43.42,-7.84 -64.28,-0.63 -30.83,13.09 -61.12,27.41 -90.79,42.93 -29.85,14.72 -59.51,29.83 -88.96,45.33 l -14.66,-11.72 c -5.45,-4.36 -11.5,-7.93 -17.95,-10.59 -11.17,-3.87 -22.37,-7.63 -33.61,-11.3 -35.84,-13.55 -72.51,-24.8 -109.78,-33.68 -37.37,-5.76 -75.06,8.29 -99.53,37.11 -7.2,9.47 -11.8,20.65 -13.34,32.44 -0.77,5.86 -0.78,11.8 -0.02,17.66 4.19,25.21 13.9,49.19 28.45,70.21 11.32,18.05 24.01,35.21 37.94,51.33 l 73.43,84.95 -105.25,-39.12 c -32.01,-11.9 -66,-17.59 -100.14,-16.77 -42.05,-0.98 -77.19,31.83 -79.09,73.86 -0.36,7.98 0.52,15.97 2.61,23.67 8.27,36.56 29.14,69.04 58.94,91.77 21.99,17.49 44.93,33.76 68.71,48.72 28.19,18.92 55.97,38.43 83.32,58.53 l -45.13,20.62 c -7.92,3.62 -16.11,6.63 -24.5,9.01 -34.24,11.9 -67.36,26.81 -98.97,44.56 -21.82,11.57 -39.65,29.47 -51.14,51.35 -3.33,6.69 -5.66,13.84 -6.91,21.21 -6.57,38.62 17.02,75.98 54.71,86.64 14.04,4.5 28.57,7.29 43.28,8.29 71.22,8.16 143.32,3.66 212.98,-13.27 15.38,-4.07 30.39,-9.43 44.86,-16.03 44.76,-20.01 88.67,-41.88 131.61,-65.54 58.86,-32.54 118.38,-63.86 178.54,-93.93" /><path
             id="path26"
             style="fill:#ed1c24;fill-opacity:1;fill-rule:evenodd;stroke:none"
             d="m 3.65625,6726.85 c 37.19145,656.4 406.01175,1248.7 978.66775,1571.67 -4.633,-16.72 -8.922,-33.54 -12.863,-50.45 -9.516,-40.44 -26.641,-78.71 -50.461,-112.75 -27.359,-39.39 -56.129,-77.77 -86.254,-115.08 -24.367,-30.9 -46.703,-63.35 -66.871,-97.14 -20.699,-34.13 -41.684,-68.09 -62.953,-101.87 -17.277,-27.76 -32.688,-56.63 -46.137,-86.43 -16.101,-35.98 -25.683,-74.54 -28.297,-113.87 -1.156,-46.93 5.821,-93.71 20.617,-138.26 10.653,-33.24 23.305,-65.81 37.891,-97.53 16.231,-35.04 32.602,-70.02 49.109,-104.93 -15.707,-8.81 -30.335,-19.41 -43.593,-31.6 -33.141,-30.41 -62.965,-64.24 -88.961,-100.95 -17.824,-27.34 -34.387,-55.49 -49.645,-84.34 -12.238,-22.86 -26.57,-44.52 -42.82,-64.71 -33.77,-38.52 -69.891,-74.91 -108.148,-108.97 -31.618,-28.46 -63.379,-56.77 -95.278,-84.92 -23.172,-19.87 -47.414,-38.45 -72.625,-55.66 -21.894,-15.42 -42.402,-32.72 -61.293,-51.7 -6.773,-6.99 -12.246,-15.13 -16.168,-24.04 -52.238,15.04 -103.6209,32.91 -153.91775,53.53 z M 3832.38,6942.07 c 7.75,-45.46 13.87,-91.18 18.35,-137.07 -43.25,9.28 -87.53,12.88 -131.71,10.7 10.12,27.73 26.34,52.84 47.46,73.47 13.24,12.68 27.31,24.48 42.09,35.33 7.94,5.86 15.88,11.71 23.81,17.57 z m 22.76,-458.85 c -0.37,-5.38 -0.77,-10.76 -1.19,-16.13 -8.78,7 -17.75,13.77 -26.91,20.27 9.4,-1.19 18.76,-2.57 28.1,-4.14 z M 1052.63,5651.8 c 15.53,-18.42 29.34,-38.23 41.25,-59.18 354.64,-297.66 839.82,-386.56 1276.96,-233.99 437.14,152.57 761.62,524.07 854.02,977.76 3.72,0.8 7.4,1.76 11.03,2.89 9.88,4.15 19.78,8.25 29.7,12.32 8.14,2.49 16.35,4.78 24.61,6.88 17.2,4.23 33.68,10.98 48.89,20.05 6.94,4.45 14.23,8.33 21.81,11.58 12.75,3.62 25.5,7.24 38.25,10.85 8.94,3.57 17.87,7.12 26.81,10.67 8.35,3.64 17.88,3.45 26.09,-0.51 24.97,-10.95 50.72,-20.03 77.04,-27.16 6.64,-4.21 13.37,-8.26 20.2,-12.17 3.15,-1.04 6,-2.86 8.26,-5.3 8.1,-9.68 18.41,-17.26 30.07,-22.11 8.9,-5.27 17.92,-10.35 27.03,-15.24 1.89,-1.54 3.68,-3.2 5.36,-4.98 8.42,-9.61 19.09,-16.99 31.06,-21.47 24.87,-14.35 50.57,-27.18 76.98,-38.43 27.91,-19.01 60.47,-30.08 94.18,-32.04 C 3681.54,5531.58 3165.12,4966.07 2480.1,4762.5 1795.08,4558.93 1053.64,4750.63 553.141,5260.72 l -41.539,58.83 c -1.86,-1.31 -3.653,-2.71 -5.379,-4.19 -196.434,214.81 -341.723,471.28 -424.9925,750.2 8.75,-7.04 17.0547,-14.61 24.8675,-22.67 14.312,-14.82 28.406,-29.84 42.281,-45.08 19.266,-21.45 40.226,-41.33 62.68,-59.42 30.363,-23.46 68.261,-35 106.543,-32.42 36.675,2.78 71.636,16.65 100.238,39.77 14.187,11.33 24.289,26.97 28.777,44.56 5.078,21.42 3.141,43.9 -5.535,64.13 -7.691,16.7 -16.875,32.67 -27.434,47.71 -2.082,3.98 -4.117,7.97 -6.101,11.99 12.488,1.7 24.707,4.98 36.367,9.75 28.684,13.35 56.645,28.22 83.762,44.53 47.359,28.58 94.992,56.71 142.887,84.39 -9.161,-23.62 -5.239,-50.3 10.32,-70.29 l 15.519,-19.93 2132.198,1406.14 c -217.12,200.38 -495.46,321.68 -790.05,344.31 -7.23,12.29 -14.67,24.47 -22.31,36.52 -12.83,18.8 -24.5,38.36 -34.94,58.58 -20.38,45.58 -29.65,95.33 -27.05,145.19 1.33,21.22 3.1,42.41 5.33,63.56 3.33,29.2 4.26,58.62 2.77,87.97 -1.71,43.13 -17.66,84.48 -45.35,117.6 15.46,9.74 31.21,19.04 47.21,27.88 32.02,-5.45 64.67,-6.19 96.9,-2.17 50.98,11.84 96.44,40.62 128.96,81.64 725.81,-98.65 1333.2,-599.75 1567.97,-1293.59 -33.9,-15.27 -67.09,-32.07 -99.46,-50.35 -52.58,-30.11 -105.09,-60.35 -157.53,-90.71 -15.8,-9.4 -31.19,-19.49 -46.11,-30.23 -9.61,-7.1 -19.73,-13.49 -30.26,-19.13 -21.79,-11.85 -44.14,-22.61 -66.98,-32.26 -12.7,12.99 -29.05,21.8 -46.88,25.25 -25.71,5.02 -52.24,3.91 -77.44,-3.26 -6.03,-1.97 -11.98,-4.22 -17.81,-6.72 -3.06,9.41 -6.98,18.53 -11.71,27.23 L 1089.95,5664.54 c -13.31,-1.08 -26.13,-5.46 -37.32,-12.74" /><path
             id="path28"
             style="fill:#ed1c24;fill-opacity:1;fill-rule:evenodd;stroke:none"
             d="m 2854.95,2106.34 c 37.19,656.4 406.01,1248.71 978.67,1571.68 -4.63,-16.73 -8.92,-33.55 -12.86,-50.45 -9.51,-40.45 -26.64,-78.72 -50.46,-112.76 -27.36,-39.38 -56.13,-77.77 -86.26,-115.08 -24.36,-30.9 -46.7,-63.35 -66.87,-97.14 -20.7,-34.13 -41.68,-68.09 -62.95,-101.87 -17.28,-27.76 -32.69,-56.63 -46.13,-86.43 -16.11,-35.98 -25.69,-74.53 -28.3,-113.86 -1.16,-46.94 5.82,-93.71 20.61,-138.27 10.65,-33.24 23.31,-65.81 37.89,-97.52 16.23,-35.05 32.6,-70.03 49.11,-104.94 -15.7,-8.81 -30.33,-19.41 -43.59,-31.59 -33.14,-30.41 -62.96,-64.25 -88.96,-100.95 -17.82,-27.35 -34.39,-55.5 -49.65,-84.35 -12.23,-22.85 -26.57,-44.51 -42.82,-64.71 -33.77,-38.51 -69.89,-74.9 -108.15,-108.97 -31.61,-28.46 -63.37,-56.77 -95.27,-84.92 -23.17,-19.87 -47.42,-38.44 -72.63,-55.66 -21.89,-15.42 -42.4,-32.72 -61.29,-51.7 -6.77,-6.99 -12.25,-15.13 -16.17,-24.04 -52.24,15.05 -103.62,32.92 -153.92,53.53 z m 3828.73,215.22 c 7.75,-45.45 13.87,-91.17 18.34,-137.07 -43.25,9.28 -87.52,12.88 -131.7,10.7 10.11,27.74 26.33,52.85 47.46,73.47 13.24,12.68 27.3,24.49 42.09,35.33 7.94,5.86 15.87,11.72 23.81,17.57 z m 22.76,-458.85 c -0.37,-5.37 -0.77,-10.75 -1.19,-16.13 -8.78,7.01 -17.75,13.77 -26.91,20.28 9.39,-1.2 18.77,-2.58 28.1,-4.15 z M 3903.93,1031.3 c 15.53,-18.43 29.34,-38.241 41.25,-59.187 354.64,-297.656 839.82,-386.558 1276.96,-233.988 437.13,152.57 761.62,524.075 854.02,977.755 3.72,0.8 7.4,1.76 11.03,2.89 9.88,4.15 19.78,8.25 29.69,12.32 8.15,2.49 16.36,4.79 24.62,6.89 17.2,4.22 33.67,10.98 48.89,20.04 6.93,4.46 14.23,8.33 21.81,11.58 12.75,3.62 25.5,7.24 38.25,10.86 8.93,3.56 17.87,7.11 26.8,10.66 8.36,3.64 17.89,3.45 26.09,-0.5 24.98,-10.96 50.73,-20.04 77.05,-27.17 6.64,-4.2 13.38,-8.26 20.19,-12.17 3.16,-1.04 6,-2.86 8.26,-5.3 8.11,-9.68 18.42,-17.26 30.08,-22.1 8.9,-5.28 17.91,-10.36 27.03,-15.25 1.89,-1.54 3.68,-3.2 5.35,-4.97 8.43,-9.62 19.1,-17 31.07,-21.48 24.86,-14.34 50.57,-27.18 76.97,-38.43 27.92,-19 60.48,-30.08 94.19,-32.04 C 6532.83,911.07 6016.42,345.566 5331.4,141.992 4646.38,-61.582 3904.94,130.117 3404.44,640.211 l -41.54,58.832 c -1.86,-1.313 -3.65,-2.711 -5.38,-4.191 -196.43,214.808 -341.72,471.278 -424.99,750.198 8.75,-7.03 17.05,-14.6 24.86,-22.66 14.32,-14.82 28.41,-29.85 42.29,-45.09 19.26,-21.45 40.23,-41.32 62.68,-59.42 30.36,-23.46 68.26,-34.99 106.54,-32.42 36.67,2.78 71.64,16.65 100.24,39.77 14.18,11.33 24.29,26.97 28.77,44.56 5.09,21.42 3.14,43.9 -5.53,64.13 -7.69,16.7 -16.87,32.67 -27.43,47.72 -2.09,3.97 -4.12,7.97 -6.1,11.99 12.48,1.69 24.7,4.97 36.36,9.74 28.69,13.36 56.65,28.22 83.76,44.53 47.37,28.58 94.99,56.71 142.89,84.39 -9.16,-23.61 -5.24,-50.3 10.32,-70.29 l 15.52,-19.93 2132.2,1406.14 c -217.12,200.38 -495.46,321.68 -790.04,344.31 -7.24,12.3 -14.68,24.47 -22.32,36.52 -12.83,18.8 -24.5,38.36 -34.95,58.59 -20.37,45.57 -29.64,95.33 -27.04,145.18 1.33,21.22 3.1,42.42 5.33,63.57 3.33,29.19 4.26,58.61 2.77,87.96 -1.71,43.13 -17.66,84.48 -45.36,117.6 15.47,9.74 31.21,19.04 47.21,27.88 32.02,-5.45 64.67,-6.18 96.9,-2.16 50.99,11.83 96.45,40.61 128.96,81.64 725.82,-98.66 1333.2,-599.76 1567.98,-1293.6 -33.9,-15.26 -67.09,-32.06 -99.46,-50.35 -52.58,-30.11 -105.09,-60.35 -157.54,-90.7 -15.8,-9.41 -31.18,-19.5 -46.11,-30.24 -9.6,-7.1 -19.72,-13.49 -30.26,-19.13 -21.77,-11.85 -44.13,-22.61 -66.97,-32.26 -12.7,13 -29.05,21.8 -46.89,25.25 -25.7,5.03 -52.23,3.91 -77.43,-3.26 -6.04,-1.97 -11.98,-4.21 -17.81,-6.72 -3.07,9.42 -6.98,18.53 -11.71,27.23 L 3941.24,1044.03 c -13.3,-1.08 -26.12,-5.46 -37.31,-12.73" /><path
             id="path30"
             style="fill:#f6f6f6;fill-opacity:1;fill-rule:evenodd;stroke:none"
             d="M 5466.79,2910.8 3860.54,1850.17 c -0.71,0.4 -1.49,0.65 -2.29,0.76 -19.91,3.8 -40.02,6.51 -60.23,8.13 -13.96,0.95 -27.96,-1.2 -40.99,-6.31 -47.19,-20.17 -93.05,-43.32 -137.31,-69.3 -36.58,-21.27 -72.98,-42.84 -109.19,-64.74 -56.61,-32.47 -112.87,-65.57 -168.75,-99.29 -24.28,-14.63 -49.3,-28 -74.95,-40.06 -16.04,-6.24 -33.7,-6.94 -50.18,-2 -1.56,1.33 -2.7,3.08 -3.3,5.03 -4.21,11.81 -6.97,24.09 -8.22,36.56 0.01,2.44 -1.13,4.75 -3.07,6.23 -4.27,1.98 -9.25,1.72 -13.3,-0.7 -5.07,-2.82 -8.96,-7.36 -10.97,-12.8 -14.31,-38.82 -11.94,-81.83 6.55,-118.85 5.92,-13.34 12.33,-26.46 19.21,-39.33 8.86,-12.12 16.52,-25.07 22.89,-38.67 2.3,-5.62 2.88,-11.79 1.67,-17.73 -0.69,-2.3 -2.07,-4.32 -3.97,-5.79 -17.2,-14 -38.26,-22.42 -60.36,-24.16 -20.44,-1.31 -40.65,4.8 -56.94,17.21 -19.23,15.57 -37.2,32.66 -53.73,51.09 -14.42,15.83 -29.07,31.45 -43.95,46.86 -20.93,21.6 -44.61,40.38 -70.43,55.83 -27.48,16.41 -55.07,32.66 -82.75,48.72 -8.22,3.85 -17.82,3.3 -25.55,-1.46 -8.68,-5 -17.59,-9.57 -26.72,-13.7 -8.36,-3.59 -17.74,-4.06 -26.42,-1.33 -28.6,12.31 -56.72,25.72 -84.27,40.23 -34.42,16.94 -68.56,34.46 -102.4,52.53 -16.14,8.44 -32.74,15.99 -49.71,22.62 -2.48,0.85 -5.2,0.72 -7.59,-0.37 -6.5,-3.06 -11.95,-7.97 -15.66,-14.13 -1.43,-3.21 -1.31,-6.89 0.34,-10 3.12,-5.64 6.91,-10.89 11.3,-15.62 1.22,-1.23 1.71,-3.02 1.29,-4.7 -1.68,-2.25 -3.91,-4.02 -6.48,-5.15 -10.45,-3.55 -20.95,-7.01 -31.47,-10.39 -33.24,-12.69 -67.26,-23.26 -101.84,-31.65 -8.92,-1.35 -18.05,0.15 -26.07,4.3 -6.48,2.31 -12.28,6.25 -16.82,11.43 -1.47,2.11 -2.13,4.68 -1.88,7.24 3.04,16.6 9.68,32.35 19.45,46.12 9.02,14.46 19.02,28.28 29.92,41.38 12.55,11.34 24.82,22.99 36.81,34.93 7.9,10.48 15.19,21.41 21.83,32.73 7,10.05 19.76,14.33 31.41,10.52 7.93,-1.35 15.71,-3.5 23.21,-6.41 7.54,-4.8 15.42,-9.03 23.59,-12.66 6.42,-2.28 13.13,-3.65 19.93,-4.05 0.67,-0.12 1.35,0.08 1.84,0.54 0.5,0.46 0.74,1.13 0.66,1.8 -2.35,6.71 -5.91,12.93 -10.52,18.34 -8.31,10.09 -17.59,19.35 -27.7,27.63 -15.13,15.23 -33.26,27.15 -53.25,35 -40.32,11.96 -82.52,16.28 -124.42,12.74 -14.18,-2.96 -28.16,-6.79 -41.86,-11.48 -22.65,-7.86 -46.52,-11.64 -70.48,-11.18 -5.14,0.27 -10.21,1.24 -15.07,2.9 -4.48,1.92 -7.76,5.88 -8.81,10.64 -0.9,3.88 -0.84,7.92 0.17,11.77 5.01,24.32 18.7,45.98 38.52,60.93 44.78,33.51 90.44,65.82 136.93,96.91 8.76,6.23 18.3,11.29 28.37,15.05 1.8,-0.16 3.54,-0.77 5.05,-1.77 17.86,-12.7 35.47,-25.75 52.82,-39.14 1.41,-1.48 2.9,-2.89 4.45,-4.22 0.32,-0.31 0.82,-0.34 1.17,-0.07 5.1,4.34 8.06,10.7 8.08,17.4 -0.07,1.73 -0.48,3.44 -1.2,5.01 -22.37,47.61 -58.2,87.62 -103.05,115.11 -20.59,14.59 -43.46,25.68 -67.67,32.84 -31.41,11.02 -61.78,24.84 -90.73,41.28 -10.94,5.93 -19.94,14.91 -25.89,25.84 -2.44,5.19 -2.41,11.2 0.07,16.36 2.48,5.16 7.15,8.93 12.72,10.27 10.37,3.44 21.14,5.51 32.05,6.15 26.43,2.55 52.97,3.73 79.52,3.52 38.46,-0.7 76.71,-5.8 114.01,-15.2 10.47,-2.83 20.74,-6.37 30.72,-10.62 44.04,-19.49 87.21,-40.86 129.41,-64.07 54.51,-30.47 109.73,-59.64 165.63,-87.48 95.16,-44.84 194.57,-80.01 296.74,-105.01 10.85,-1.85 21.93,-1.85 32.78,0.01 13.15,1.47 26.15,4.05 38.86,7.71 -14.4,5.59 -27.46,14.17 -38.31,25.17 -5.05,5.19 -8.51,11.73 -9.96,18.84 -0.19,2.8 0.81,5.55 2.74,7.58 15.7,15.72 32.72,30.06 50.86,42.87 27.36,18.7 53.66,38.89 78.81,60.47 32.15,28.37 64.17,56.91 96.04,85.6 40.79,36.32 79.28,75.15 115.24,116.26 19.5,24.07 36.67,49.95 51.28,77.26 14.02,26.56 29.24,52.47 45.59,77.66 22.88,32.12 49.07,61.75 78.14,88.4 12.28,11.3 26.26,20.61 41.42,27.6 5.29,2.33 10.8,4.14 16.44,5.41 5.16,0.95 10.5,0.17 15.18,-2.24 8.29,-4.48 15.84,-10.18 22.42,-16.92 13.21,-13.5 26.71,-26.69 40.51,-39.58 8.38,-10.05 16.23,-20.54 23.51,-31.41 1.51,-2.58 4.26,-4.17 7.25,-4.19 2.99,-0.01 5.76,1.55 7.29,4.12 2.93,5.8 2.62,12.71 -0.83,18.21 -10.33,16.17 -21.88,31.52 -34.54,45.92 -20.89,22.48 -40.27,46.31 -58.01,71.35 -6.82,10.05 -12.85,20.61 -18.01,31.6 -17.31,36.56 -34.46,73.19 -51.46,109.9 -13.41,29.17 -25.04,59.13 -34.82,89.71 -12.11,36.27 -17.92,74.35 -17.17,112.58 2.2,30.28 9.67,59.94 22.07,87.64 12.1,26.81 25.96,52.79 41.5,77.76 21.49,34.14 42.7,68.46 63.61,102.95 18.55,31.09 39.07,60.93 61.47,89.36 31.09,38.52 60.79,78.15 89.03,118.8 29.04,41.53 49.91,88.21 61.5,137.54 7.01,30.12 15.18,59.95 24.5,89.43 16.52,44.15 37.22,86.63 61.82,126.84 17.37,28.19 40.43,52.45 67.7,71.23 29.86,20.16 61.88,36.93 95.45,50 25.34,10.32 50.76,20.46 76.25,30.42 20.79,7.92 42.32,13.7 64.28,17.27 23.24,4.31 46.52,8.37 69.84,12.17 14.05,1.3 28.06,2.87 42.05,4.71 5.21,0.78 10.26,2.45 14.9,4.94 2.31,2.01 2.95,5.34 1.55,8.06 -5.26,10.41 -16.09,16.83 -27.75,16.43 -6.98,0.31 -13.96,0.66 -20.93,1.07 -3.27,0.23 -6.47,1.04 -9.45,2.4 -3.29,1.73 -5.03,5.42 -4.28,9.06 0.5,2.99 2.01,5.72 4.27,7.75 13.92,12.14 29.03,22.85 45.09,31.97 37.19,21.98 75.19,42.55 113.92,61.67 27.88,13.11 56.35,24.91 85.33,35.37 21.56,8.1 45.31,8.21 66.95,0.3 32,-11.39 59.17,-33.34 77.01,-62.25 9.19,-17.64 17.83,-35.57 25.92,-53.74 12.71,-25.62 30.6,-48.31 52.55,-66.64 24.87,-22.74 53.72,-40.71 85.09,-53.02 9.71,-3.66 19.94,-5.73 30.3,-6.14 1.17,0.74 1.75,2.13 1.48,3.49 -0.41,5.42 -0.99,10.83 -1.76,16.21 -0.51,9.32 -1.82,18.58 -3.9,27.68 -0.66,5 1.14,10.01 4.84,13.45 6.81,6.86 16.29,10.4 25.94,9.68 9.02,0.79 18.1,-0.33 26.66,-3.27 4.9,-2.61 8.26,-7.4 9.03,-12.9 3.71,-18.14 -0.47,-37 -11.49,-51.89 -12.9,-16.46 -29.14,-30.01 -47.64,-39.75 -11.46,-6.54 -23.75,-11.52 -36.55,-14.77 -21.93,-2.24 -44.06,-1.86 -65.91,1.13 -6.13,1.38 -12.33,2.49 -18.56,3.33 -7.12,0.65 -14.28,-0.5 -20.84,-3.34 -14.66,-6.52 -28.77,-14.19 -42.21,-22.94 -13.99,-7.95 -27.45,-16.78 -40.32,-26.44 -2.77,-1.73 -5.86,-2.88 -9.09,-3.37 -2.39,-0.04 -4.72,0.7 -6.64,2.11 -3.62,2.87 -7.07,5.96 -10.33,9.25 -9.03,7.61 -17.76,15.59 -26.15,23.91 -7.93,7.59 -18.21,12.26 -29.15,13.24 -2.74,0.14 -5.09,-1.97 -5.23,-4.71 -0.07,-3.35 0.55,-6.68 1.82,-9.77 7.08,-16.59 16.19,-32.23 27.11,-46.58 16.98,-25.97 35.53,-50.89 55.55,-74.59 9.52,-11.62 17.42,-24.48 23.48,-38.24 4.95,-12.9 7.76,-26.53 8.31,-40.35 1.31,-25.62 0.5,-51.3 -2.42,-76.79 -2.36,-22.39 -4.24,-44.83 -5.64,-67.3 -3.3,-62.07 8.38,-124.01 34.06,-180.61 11.82,-23.06 25.05,-45.36 39.62,-66.79 18.58,-29.38 35.9,-59.55 51.91,-90.41 16.54,-28.88 31.64,-58.55 45.27,-88.91 16.5,-38.35 28.49,-78.49 35.71,-119.61 3.23,-20.07 3.67,-40.49 1.31,-60.68 -7.79,-50.48 -22.07,-99.73 -42.49,-146.55 -9.92,-23.95 -20.85,-47.47 -32.74,-70.5 -13.32,-20.7 -28.2,-40.34 -44.52,-58.76 -10.77,-12.62 -20.63,-25.98 -29.51,-40 -1.63,-2.86 -2.8,-5.96 -3.45,-9.19 -0.36,-1.73 -0.09,-3.54 0.76,-5.09 2.06,-3.67 5.6,-6.27 9.72,-7.15 4.12,-0.89 8.41,0.05 11.8,2.55 23.09,19.26 44.12,40.87 62.75,64.48 7.29,9.37 14.02,19.14 20.17,29.29 33.67,56.21 60.95,116 81.35,178.27 3.85,15.86 4.65,32.32 2.36,48.49 -0.97,9.43 -0.74,18.95 0.67,28.33 1.48,7.6 6.67,13.95 13.82,16.91 12.27,5.45 24.92,10.01 37.84,13.63 9.2,2.45 18.71,3.56 28.22,3.3 48.58,-1.28 97.09,-4.28 145.45,-9 34.51,-3.69 68.62,-10.4 101.94,-20.07 51.72,-14.54 103.23,-29.81 154.52,-45.78 2.21,-0.69 4.41,-1.4 6.61,-2.13 z M 4105.7,3492.96 c 14.48,-1.78 28.85,4.11 37.91,15.54 16.28,20.44 17.89,48.92 4.02,71.07 -5.02,8 -12.35,14.31 -21.02,18.08 -8.81,4.17 -18.93,4.58 -28.05,1.15 0.25,21.19 13.16,40.16 32.78,48.18 -4.7,6.04 -10.95,10.69 -18.07,13.47 -8.88,3.12 -18.69,2.03 -26.66,-2.97 -11.2,-7.87 -19.66,-19.04 -24.2,-31.95 -8.95,-23.55 -11.13,-49.13 -6.3,-73.85 2.09,-12.27 6.37,-24.06 12.62,-34.82 3.65,-6.09 8.27,-11.54 13.69,-16.13 6.38,-5.65 14.79,-8.45 23.28,-7.77 z m 336.57,29.25 c 3.98,2.61 7.56,5.77 10.62,9.41 16.27,20.44 17.88,48.92 4.01,71.07 -8.98,14.56 -25.49,22.73 -42.51,21.02 4.5,15.1 15.9,27.17 30.72,32.52 -6.02,7.48 -14.57,12.51 -24.04,14.13 -8.78,1.09 -17.63,-1.36 -24.62,-6.79 -5.71,-4.38 -10.54,-9.78 -14.26,-15.94 -6.22,-10.25 -10.46,-21.58 -12.5,-33.4 -4.64,-23.21 -2.31,-47.28 6.71,-69.18 2.48,-5.91 5.71,-11.49 9.59,-16.59 5.33,-7.23 12.58,-12.82 20.91,-16.16 12.72,-3.37 26.27,0.42 35.37,9.91 z m -321.85,294.67 c 2.96,2.55 5.36,5.69 7.06,9.21 0.9,2.56 0.51,5.41 -1.05,7.63 -1.57,2.23 -4.11,3.56 -6.83,3.58 -3.43,-0.05 -6.8,-0.91 -9.82,-2.53 -6.58,-3.42 -12.76,-7.55 -18.44,-12.33 -26.07,-20.85 -46.27,-48.12 -58.62,-79.14 -2.17,-5.21 -3.77,-10.62 -4.8,-16.17 -0.54,-2.63 -0.38,-5.36 0.44,-7.92 1.42,-3.18 4.72,-5.1 8.19,-4.75 3.04,0.58 5.77,2.2 7.74,4.58 3.76,4.48 6.87,9.48 9.23,14.84 6.64,14.52 14.59,28.41 23.77,41.48 10.3,12.43 21.86,23.76 34.51,33.8 2.95,2.48 5.83,5.06 8.62,7.72 z M 4306.9,2560.13 c 13.73,11.49 23.53,26.97 28.05,44.28 -1.75,3.61 -4.58,6.59 -8.1,8.5 -3.44,0.99 -7.04,1.28 -10.58,0.83 -5.3,-19.49 -18.8,-35.73 -37,-44.5 -18.2,-8.78 -39.31,-9.22 -57.86,-1.22 -11.39,4.66 -21.61,11.8 -29.91,20.89 -2.23,0.68 -4.65,0.38 -6.65,-0.84 -2,-1.2 -3.39,-3.2 -3.83,-5.5 -0.42,-4.44 1.09,-8.86 4.14,-12.12 3.04,-3.59 6.68,-6.61 10.76,-8.94 21.62,-11.7 45.92,-17.56 70.49,-16.99 14.82,0.75 29.01,6.22 40.49,15.61 z m -86.11,425.08 c -9.43,-0.61 -18.38,-4.37 -25.43,-10.66 -7.15,-6.26 -13.09,-13.78 -17.53,-22.17 -6.6,-12.35 -11.34,-25.61 -14.06,-39.35 -5.95,-29.89 -5.43,-60.71 1.54,-90.38 3.85,-17.75 10.96,-34.63 20.94,-49.79 5.21,-7.95 11.82,-14.88 19.53,-20.44 11.15,-8.35 25.81,-10.42 38.84,-5.47 8.56,3.75 16.03,9.6 21.72,17 7.18,9.23 12.79,19.57 16.61,30.62 10.89,32.03 13.37,66.32 7.19,99.58 -2.97,19.15 -9.28,37.64 -18.65,54.6 -5.07,9.26 -11.71,17.56 -19.62,24.55 -8.46,7.79 -19.58,12.06 -31.08,11.91 z M 5997.18,1701.87 C 5906.89,1320.48 5641.76,1004.14 5282.02,848.586 4922.28,693.031 4510.2,716.535 4170.48,911.988 c 14.82,10.692 28.61,22.75 41.18,36.02 23.1,25.379 45.15,51.703 66.08,78.902 29.01,38.05 58.46,75.77 88.36,113.13 7.34,10.69 14.92,21.21 22.74,31.56 3.52,4.48 7.84,8.28 12.73,11.2 7.81,3.93 16.9,4.43 25.08,1.36 8.01,-2.54 15.85,-5.6 23.46,-9.15 8.23,-3.84 16.6,-7.38 25.09,-10.61 23.55,-8.94 46.84,-18.54 69.84,-28.78 18.41,-8.1 37.06,-15.65 55.92,-22.63 11.25,-4.07 22.68,-7.65 34.24,-10.73 58.12,-15.23 117.72,-24.14 177.76,-26.57 23.22,-1.01 46.49,0.28 69.46,3.87 14.44,2.11 28.52,6.14 41.89,11.98 2.16,1.69 2.7,4.73 1.26,7.07 -2.67,4.07 -6.26,7.45 -10.48,9.88 -6.97,4.01 -14.64,6.67 -22.59,7.84 -15.1,1.88 -30.32,2.64 -45.52,2.24 -9.4,0.01 -18.78,0.53 -28.12,1.56 -27.04,3.07 -54.07,6.14 -81.11,9.2 -34.51,3.7 -68.77,9.5 -102.57,17.37 -76.27,18.69 -150.32,45.5 -220.88,79.99 -16.09,7.89 -31.62,16.9 -46.46,26.95 l 1182.79,779.65 c 3.51,-3.5 7.09,-6.95 10.74,-10.32 15.96,-15.42 33.51,-29.1 52.37,-40.81 -6.71,-10.02 -13.56,-19.95 -20.55,-29.77 -14.31,-19.63 -27.11,-40.31 -38.29,-61.87 -14.79,-28.81 -23.87,-60.2 -26.73,-92.46 -2.23,-22.63 0.34,-45.47 7.55,-67.03 8.54,-24.79 24.38,-46.41 45.43,-62.03 35.58,-25.92 80.66,-35.11 123.55,-25.19 21.13,4.9 41.86,11.37 62.03,19.36 27.12,10.94 53.76,23.03 79.86,36.24 28.09,14.44 56.63,28.02 85.56,40.7 12.51,-19.1 32.24,-32.31 54.66,-36.61 3.45,-0.62 6.9,-1.17 10.37,-1.63 z M 4284.39,3179.05 c 15.92,11.13 26.72,28.16 30.01,47.3 -1.65,3.31 -4.15,6.11 -7.24,8.13 -3.66,1.31 -7.59,1.73 -11.44,1.2 -3.1,-13.6 -10.33,-25.91 -20.69,-35.24 -6.08,-5.4 -13.92,-8.38 -22.05,-8.36 -6.41,0.27 -12.7,1.78 -18.53,4.46 -15.03,6.62 -28.52,16.31 -39.59,28.44 -3.69,-0.38 -7.24,-1.59 -10.39,-3.55 -1.79,-1.69 -2.81,-4.04 -2.82,-6.5 -0.12,-2.02 -0.14,-4.05 -0.06,-6.07 10.66,-14.15 24.74,-25.36 40.91,-32.58 11.88,-5.4 24.99,-7.5 37.96,-6.07 8.55,1.08 16.74,4.1 23.93,8.84 z m 213.94,564.37 c 1.42,-3.62 3.51,-6.95 6.15,-9.81 1.61,-1.84 4.07,-2.68 6.47,-2.21 4.37,1.45 7.32,5.53 7.33,10.13 0.28,3.71 0.07,7.44 -0.64,11.1 -6.08,30.6 -24.74,57.22 -51.43,73.37 -14.52,9.49 -30.28,16.91 -46.85,22.05 -3.53,1.18 -7.23,1.75 -10.95,1.69 -2.69,0.05 -5.19,-1.38 -6.5,-3.74 -1.82,-4.03 -0.64,-8.79 2.87,-11.49 2.58,-2.44 5.42,-4.59 8.48,-6.39 7.49,-4.19 15.06,-8.21 22.72,-12.06 8.94,-4.49 17.48,-9.7 25.56,-15.59 13.77,-10.39 24.23,-24.56 30.09,-40.78 2.26,-5.41 4.5,-10.83 6.7,-16.27 z M 6718.32,1677.97 c -11.61,9.22 -25.79,14.63 -40.59,15.49 -20.71,1.2 -40.69,8 -57.84,19.67 -12.69,7.38 -25.79,14.01 -39.25,19.87 -12.44,6.73 -25.13,12.99 -38.04,18.77 -4.67,3.15 -9.69,5.73 -14.97,7.71 -0.81,0.3 -1.54,0.81 -2.11,1.46 -4.34,4.82 -9.04,9.29 -14.07,13.38 -14.17,9.93 -29.19,18.59 -44.87,25.91 -11.47,8.33 -22.8,16.86 -33.97,25.59 -19.24,13.02 -40.79,22.28 -63.48,27.28 -11.89,2.78 -23.43,6.87 -34.42,12.2 -26.64,12.87 -57.51,13.7 -84.8,2.29 -7.56,-3 -15.12,-6 -22.67,-9.01 -13.02,-3.8 -26.04,-7.6 -39.05,-11.4 -12.34,-4.89 -24.21,-10.89 -35.46,-17.92 -8.95,-5.22 -18.62,-9.12 -28.69,-11.57 -20.94,-4.79 -41.31,-11.83 -60.73,-21.01 -16.53,-3.05 -31.48,-11.76 -42.28,-24.64 -6.98,0.26 -13.92,1 -20.78,2.22 -3.28,0.66 -6.14,2.62 -7.95,5.44 -2.45,4.22 -3.34,9.17 -2.49,13.98 0.53,6.41 4.2,12.15 9.8,15.32 6.39,3.39 13.06,6.21 19.94,8.43 5.93,2.53 12.23,4.1 18.66,4.62 6.87,0.39 13.52,2.63 19.22,6.5 2.79,1.49 5.11,3.74 6.67,6.48 0.44,0.99 0.42,2.13 -0.06,3.1 -3.3,6.7 -8.38,12.37 -14.68,16.39 -4.56,2.98 -9.93,4.46 -15.36,4.25 -5.26,-0.49 -10.39,-1.88 -15.18,-4.1 -7.59,-3.62 -15.03,-7.57 -22.27,-11.86 -12.2,-7.04 -25.14,-12.71 -38.6,-16.89 -15.46,-4.94 -30.78,-10.28 -45.95,-16.03 -33.22,-14.33 -65.95,-29.78 -98.12,-46.32 -24.15,-12.2 -48.8,-23.39 -73.89,-33.52 -16.69,-6.6 -33.86,-11.96 -51.35,-16.02 -22.35,-5.24 -45.88,-0.57 -64.54,12.8 -9.32,6.9 -16.35,16.44 -20.18,27.38 -3.95,11.95 -5.32,24.59 -4.04,37.11 2,23.09 8.46,45.56 19.03,66.18 9.55,18.39 20.48,36.03 32.71,52.77 15.61,21.62 30.32,43.87 44.11,66.7 6.32,8.98 12.27,18.22 17.82,27.7 3.28,5.99 5.59,12.46 6.86,19.17 1.29,9.04 1.02,18.22 -0.77,27.16 -2.47,12.13 -6.64,23.84 -12.4,34.8 -0.54,0.98 -1.47,1.67 -2.56,1.9 -1.09,0.24 -2.23,-0.02 -3.12,-0.69 -6.26,-3.68 -10.95,-9.55 -13.15,-16.47 -1.5,-4.93 -2.95,-9.88 -4.35,-14.84 -1.8,-7.12 -7,-12.89 -13.89,-15.43 -4.38,-1.86 -9.35,-1.7 -13.6,0.44 -3.04,1.59 -6.02,3.3 -8.93,5.12 -12.61,8.29 -24.44,17.69 -35.35,28.11 l 404.08,266.36 c 11.7,-0.41 23.41,-0.44 35.12,-0.11 13.31,-0.18 26.46,2.99 38.23,9.22 5.18,2.52 10.5,4.72 15.94,6.58 13.94,3.73 28.55,4.22 42.7,1.42 3.34,-0.63 6.41,-2.23 8.85,-4.61 1.29,-1.07 2.03,-2.68 2,-4.36 -0.03,-1.69 -0.83,-3.27 -2.17,-4.29 -8.39,-7.11 -17.7,-13.04 -27.69,-17.63 11.78,-3.46 23.9,-5.6 36.15,-6.39 9.98,-0.66 19.99,0.18 29.72,2.48 22.37,5.96 44.13,14.03 64.97,24.11 16.67,7.91 33.19,16.17 49.52,24.76 13.54,7.23 26.54,15.43 38.91,24.53 12.93,9.29 26.24,18.04 39.92,26.2 52.14,30.19 104.35,60.25 156.63,90.19 39.78,22.48 80.85,42.56 123.01,60.16 5.15,2.07 10.48,3.64 15.93,4.7 14.32,2.55 28.96,2.8 43.36,0.74 10.96,-1.4 21.87,-3.2 32.7,-5.4 8.29,-1.74 15.34,-7.14 19.19,-14.69 7.18,-13.19 6.3,-29.3 -2.27,-41.62 -12.53,-18.79 -27.04,-36.17 -43.28,-51.86 -16.79,-16.39 -34.6,-31.7 -53.33,-45.84 -21.09,-15.59 -42.19,-31.17 -63.3,-46.74 -17.28,-12.69 -33.72,-26.48 -49.2,-41.31 -16.1,-15.39 -30.1,-32.85 -41.63,-51.91 -17.73,-30.03 -30.62,-62.66 -38.2,-96.7 -2.58,-11.98 -2.32,-24.39 0.76,-36.25 3.12,-13.25 7.27,-26.24 12.42,-38.84 4.25,-9.77 12.44,-17.27 22.53,-20.65 4.24,-1.79 8.94,-2.18 13.42,-1.12 3.4,0.71 5.79,3.78 5.65,7.25 -0.51,4.07 -1.54,8.06 -3.06,11.88 -2.24,5.59 -3.83,11.41 -4.74,17.37 -0.2,1.59 0.01,3.2 0.6,4.69 1.91,3.02 5.19,4.9 8.76,5.01 9,0.66 18,1.22 27.01,1.68 22.92,1.37 45.91,0.83 68.73,-1.64 18.04,-2.3 36,-5.24 53.83,-8.82 40.69,-8.47 81.05,-18.42 121.01,-29.85 17.68,-4.79 35.1,-10.48 52.2,-17.06 38.65,-14.53 73.41,-37.81 101.55,-68.03 1.76,-1.92 2.84,-4.35 3.11,-6.93 0.25,-4.74 -1.34,-9.39 -4.45,-12.99 -10.43,-10.64 -21.72,-20.42 -33.75,-29.22 -16.7,-12.6 -36.44,-20.56 -57.21,-23.06 -18.86,-2.52 -37.92,-3.26 -56.91,-2.22 -32.16,0.57 -64.22,3.75 -95.85,9.54 -17.48,3.05 -35.06,5.52 -52.71,7.39 -33.35,3.35 -67.03,-0.45 -98.81,-11.12 -15.79,-5.14 -31.29,-11.14 -46.42,-17.98 -3.91,-1.55 -6.87,-4.85 -7.98,-8.92 -1.1,-4.06 -0.23,-8.41 2.36,-11.73 3.47,-4.27 7.53,-8.03 12.07,-11.15 9.32,-6.18 18.75,-12.2 28.28,-18.05 24.08,-17.12 48.3,-34.02 72.66,-50.73 16.9,-11.81 33.09,-24.59 48.49,-38.28 12.43,-11.08 23.82,-23.27 34.05,-36.42 7.42,-9.59 13.65,-20.05 18.55,-31.15 2.32,-5.32 3.14,-11.18 2.36,-16.94 -0.91,-7.2 -5.29,-13.5 -11.73,-16.86 -2.16,-1 -4.37,-1.93 -6.61,-2.76" /><path
             id="path32"
             style="fill:none;stroke:#000000;stroke-width:7.5;stroke-linecap:round;stroke-linejoin:round;stroke-miterlimit:10;stroke-dasharray:none;stroke-opacity:1"
             d="M 5466.79,2910.8 3860.54,1850.17 c -0.71,0.4 -1.49,0.65 -2.29,0.76 -19.91,3.8 -40.02,6.51 -60.23,8.13 -13.96,0.95 -27.96,-1.2 -40.99,-6.31 -47.19,-20.17 -93.05,-43.32 -137.31,-69.3 -36.58,-21.27 -72.98,-42.84 -109.19,-64.74 -56.61,-32.47 -112.87,-65.57 -168.75,-99.29 -24.28,-14.63 -49.3,-28 -74.95,-40.06 -16.04,-6.24 -33.7,-6.94 -50.18,-2 -1.56,1.33 -2.7,3.08 -3.3,5.03 -4.21,11.81 -6.97,24.09 -8.22,36.56 0.01,2.44 -1.13,4.75 -3.07,6.23 -4.27,1.98 -9.25,1.72 -13.3,-0.7 -5.07,-2.82 -8.96,-7.36 -10.97,-12.8 -14.31,-38.82 -11.94,-81.83 6.55,-118.85 5.92,-13.34 12.33,-26.46 19.21,-39.33 8.86,-12.12 16.52,-25.07 22.89,-38.67 2.3,-5.62 2.88,-11.79 1.67,-17.73 -0.69,-2.3 -2.07,-4.32 -3.97,-5.79 -17.2,-14 -38.26,-22.42 -60.36,-24.16 -20.44,-1.31 -40.65,4.8 -56.94,17.21 -19.23,15.57 -37.2,32.66 -53.73,51.09 -14.42,15.83 -29.07,31.45 -43.95,46.86 -20.93,21.6 -44.61,40.38 -70.43,55.83 -27.48,16.41 -55.07,32.66 -82.75,48.72 -8.22,3.85 -17.82,3.3 -25.55,-1.46 -8.68,-5 -17.59,-9.57 -26.72,-13.7 -8.36,-3.59 -17.74,-4.06 -26.42,-1.33 -28.6,12.31 -56.72,25.72 -84.27,40.23 -34.42,16.94 -68.56,34.46 -102.4,52.53 -16.14,8.44 -32.74,15.99 -49.71,22.62 -2.48,0.85 -5.2,0.72 -7.59,-0.37 -6.5,-3.06 -11.95,-7.97 -15.66,-14.13 -1.43,-3.21 -1.31,-6.89 0.34,-10 3.12,-5.64 6.91,-10.89 11.3,-15.62 1.22,-1.23 1.71,-3.02 1.29,-4.7 -1.68,-2.25 -3.91,-4.02 -6.48,-5.15 -10.45,-3.55 -20.95,-7.01 -31.47,-10.39 -33.24,-12.69 -67.26,-23.26 -101.84,-31.65 -8.92,-1.35 -18.05,0.15 -26.07,4.3 -6.48,2.31 -12.28,6.25 -16.82,11.43 -1.47,2.11 -2.13,4.68 -1.88,7.24 3.04,16.6 9.68,32.35 19.45,46.12 9.02,14.46 19.02,28.28 29.92,41.38 12.55,11.34 24.82,22.99 36.81,34.93 7.9,10.48 15.19,21.41 21.83,32.73 7,10.05 19.76,14.33 31.41,10.52 7.93,-1.35 15.71,-3.5 23.21,-6.41 7.54,-4.8 15.42,-9.03 23.59,-12.66 6.42,-2.28 13.13,-3.65 19.93,-4.05 0.67,-0.12 1.35,0.08 1.84,0.54 0.5,0.46 0.74,1.13 0.66,1.8 -2.35,6.71 -5.91,12.93 -10.52,18.34 -8.31,10.09 -17.59,19.35 -27.7,27.63 -15.13,15.23 -33.26,27.15 -53.25,35 -40.32,11.96 -82.52,16.28 -124.42,12.74 -14.18,-2.96 -28.16,-6.79 -41.86,-11.48 -22.65,-7.86 -46.52,-11.64 -70.48,-11.18 -5.14,0.27 -10.21,1.24 -15.07,2.9 -4.48,1.92 -7.76,5.88 -8.81,10.64 -0.9,3.88 -0.84,7.92 0.17,11.77 5.01,24.32 18.7,45.98 38.52,60.93 44.78,33.51 90.44,65.82 136.93,96.91 8.76,6.23 18.3,11.29 28.37,15.05 1.8,-0.16 3.54,-0.77 5.05,-1.77 17.86,-12.7 35.47,-25.75 52.82,-39.14 1.41,-1.48 2.9,-2.89 4.45,-4.22 0.32,-0.31 0.82,-0.34 1.17,-0.07 5.1,4.34 8.06,10.7 8.08,17.4 -0.07,1.73 -0.48,3.44 -1.2,5.01 -22.37,47.61 -58.2,87.62 -103.05,115.11 -20.59,14.59 -43.46,25.68 -67.67,32.84 -31.41,11.02 -61.78,24.84 -90.73,41.28 -10.94,5.93 -19.94,14.91 -25.89,25.84 -2.44,5.19 -2.41,11.2 0.07,16.36 2.48,5.16 7.15,8.93 12.72,10.27 10.37,3.44 21.14,5.51 32.05,6.15 26.43,2.55 52.97,3.73 79.52,3.52 38.46,-0.7 76.71,-5.8 114.01,-15.2 10.47,-2.83 20.74,-6.37 30.72,-10.62 44.04,-19.49 87.21,-40.86 129.41,-64.07 54.51,-30.47 109.73,-59.64 165.63,-87.48 95.16,-44.84 194.57,-80.01 296.74,-105.01 10.85,-1.85 21.93,-1.85 32.78,0.01 13.15,1.47 26.15,4.05 38.86,7.71 -14.4,5.59 -27.46,14.17 -38.31,25.17 -5.05,5.19 -8.51,11.73 -9.96,18.84 -0.19,2.8 0.81,5.55 2.74,7.58 15.7,15.72 32.72,30.06 50.86,42.87 27.36,18.7 53.66,38.89 78.81,60.47 32.15,28.37 64.17,56.91 96.04,85.6 40.79,36.32 79.28,75.15 115.24,116.26 19.5,24.07 36.67,49.95 51.28,77.26 14.02,26.56 29.24,52.47 45.59,77.66 22.88,32.12 49.07,61.75 78.14,88.4 12.28,11.3 26.26,20.61 41.42,27.6 5.29,2.33 10.8,4.14 16.44,5.41 5.16,0.95 10.5,0.17 15.18,-2.24 8.29,-4.48 15.84,-10.18 22.42,-16.92 13.21,-13.5 26.71,-26.69 40.51,-39.58 8.38,-10.05 16.23,-20.54 23.51,-31.41 1.51,-2.58 4.26,-4.17 7.25,-4.19 2.99,-0.01 5.76,1.55 7.29,4.12 2.93,5.8 2.62,12.71 -0.83,18.21 -10.33,16.17 -21.88,31.52 -34.54,45.92 -20.89,22.48 -40.27,46.31 -58.01,71.35 -6.82,10.05 -12.85,20.61 -18.01,31.6 -17.31,36.56 -34.46,73.19 -51.46,109.9 -13.41,29.17 -25.04,59.13 -34.82,89.71 -12.11,36.27 -17.92,74.35 -17.17,112.58 2.2,30.28 9.67,59.94 22.07,87.64 12.1,26.81 25.96,52.79 41.5,77.76 21.49,34.14 42.7,68.46 63.61,102.95 18.55,31.09 39.07,60.93 61.47,89.36 31.09,38.52 60.79,78.15 89.03,118.8 29.04,41.53 49.91,88.21 61.5,137.54 7.01,30.12 15.18,59.95 24.5,89.43 16.52,44.15 37.22,86.63 61.82,126.84 17.37,28.19 40.43,52.45 67.7,71.23 29.86,20.16 61.88,36.93 95.45,50 25.34,10.32 50.76,20.46 76.25,30.42 20.79,7.92 42.32,13.7 64.28,17.27 23.24,4.31 46.52,8.37 69.84,12.17 14.05,1.3 28.06,2.87 42.05,4.71 5.21,0.78 10.26,2.45 14.9,4.94 2.31,2.01 2.95,5.34 1.55,8.06 -5.26,10.41 -16.09,16.83 -27.75,16.43 -6.98,0.31 -13.96,0.66 -20.93,1.07 -3.27,0.23 -6.47,1.04 -9.45,2.4 -3.29,1.73 -5.03,5.42 -4.28,9.06 0.5,2.99 2.01,5.72 4.27,7.75 13.92,12.14 29.03,22.85 45.09,31.97 37.19,21.98 75.19,42.55 113.92,61.67 27.88,13.11 56.35,24.91 85.33,35.37 21.56,8.1 45.31,8.21 66.95,0.3 32,-11.39 59.17,-33.34 77.01,-62.25 9.19,-17.64 17.83,-35.57 25.92,-53.74 12.71,-25.62 30.6,-48.31 52.55,-66.64 24.87,-22.74 53.72,-40.71 85.09,-53.02 9.71,-3.66 19.94,-5.73 30.3,-6.14 1.17,0.74 1.75,2.13 1.48,3.49 -0.41,5.42 -0.99,10.83 -1.76,16.21 -0.51,9.32 -1.82,18.58 -3.9,27.68 -0.66,5 1.14,10.01 4.84,13.45 6.81,6.86 16.29,10.4 25.94,9.68 9.02,0.79 18.1,-0.33 26.66,-3.27 4.9,-2.61 8.26,-7.4 9.03,-12.9 3.71,-18.14 -0.47,-37 -11.49,-51.89 -12.9,-16.46 -29.14,-30.01 -47.64,-39.75 -11.46,-6.54 -23.75,-11.52 -36.55,-14.77 -21.93,-2.24 -44.06,-1.86 -65.91,1.13 -6.13,1.38 -12.33,2.49 -18.56,3.33 -7.12,0.65 -14.28,-0.5 -20.84,-3.34 -14.66,-6.52 -28.77,-14.19 -42.21,-22.94 -13.99,-7.95 -27.45,-16.78 -40.32,-26.44 -2.77,-1.73 -5.86,-2.88 -9.09,-3.37 -2.39,-0.04 -4.72,0.7 -6.64,2.11 -3.62,2.87 -7.07,5.96 -10.33,9.25 -9.03,7.61 -17.76,15.59 -26.15,23.91 -7.93,7.59 -18.21,12.26 -29.15,13.24 -2.74,0.14 -5.09,-1.97 -5.23,-4.71 -0.07,-3.35 0.55,-6.68 1.82,-9.77 7.08,-16.59 16.19,-32.23 27.11,-46.58 16.98,-25.97 35.53,-50.89 55.55,-74.59 9.52,-11.62 17.42,-24.48 23.48,-38.24 4.95,-12.9 7.76,-26.53 8.31,-40.35 1.31,-25.62 0.5,-51.3 -2.42,-76.79 -2.36,-22.39 -4.24,-44.83 -5.64,-67.3 -3.3,-62.07 8.38,-124.01 34.06,-180.61 11.82,-23.06 25.05,-45.36 39.62,-66.79 18.58,-29.38 35.9,-59.55 51.91,-90.41 16.54,-28.88 31.64,-58.55 45.27,-88.91 16.5,-38.35 28.49,-78.49 35.71,-119.61 3.23,-20.07 3.67,-40.49 1.31,-60.68 -7.79,-50.48 -22.07,-99.73 -42.49,-146.55 -9.92,-23.95 -20.85,-47.47 -32.74,-70.5 -13.32,-20.7 -28.2,-40.34 -44.52,-58.76 -10.77,-12.62 -20.63,-25.98 -29.51,-40 -1.63,-2.86 -2.8,-5.96 -3.45,-9.19 -0.36,-1.73 -0.09,-3.54 0.76,-5.09 2.06,-3.67 5.6,-6.27 9.72,-7.15 4.12,-0.89 8.41,0.05 11.8,2.55 23.09,19.26 44.12,40.87 62.75,64.48 7.29,9.37 14.02,19.14 20.17,29.29 33.67,56.21 60.95,116 81.35,178.27 3.85,15.86 4.65,32.32 2.36,48.49 -0.97,9.43 -0.74,18.95 0.67,28.33 1.48,7.6 6.67,13.95 13.82,16.91 12.27,5.45 24.92,10.01 37.84,13.63 9.2,2.45 18.71,3.56 28.22,3.3 48.58,-1.28 97.09,-4.28 145.45,-9 34.51,-3.69 68.62,-10.4 101.94,-20.07 51.72,-14.54 103.23,-29.81 154.52,-45.78 2.21,-0.69 4.41,-1.4 6.61,-2.13 z M 4105.7,3492.96 c 14.48,-1.78 28.85,4.11 37.91,15.54 16.28,20.44 17.89,48.92 4.02,71.07 -5.02,8 -12.35,14.31 -21.02,18.08 -8.81,4.17 -18.93,4.58 -28.05,1.15 0.25,21.19 13.16,40.16 32.78,48.18 -4.7,6.04 -10.95,10.69 -18.07,13.47 -8.88,3.12 -18.69,2.03 -26.66,-2.97 -11.2,-7.87 -19.66,-19.04 -24.2,-31.95 -8.95,-23.55 -11.13,-49.13 -6.3,-73.85 2.09,-12.27 6.37,-24.06 12.62,-34.82 3.65,-6.09 8.27,-11.54 13.69,-16.13 6.38,-5.65 14.79,-8.45 23.28,-7.77 z m 336.57,29.25 c 3.98,2.61 7.56,5.77 10.62,9.41 16.27,20.44 17.88,48.92 4.01,71.07 -8.98,14.56 -25.49,22.73 -42.51,21.02 4.5,15.1 15.9,27.17 30.72,32.52 -6.02,7.48 -14.57,12.51 -24.04,14.13 -8.78,1.09 -17.63,-1.36 -24.62,-6.79 -5.71,-4.38 -10.54,-9.78 -14.26,-15.94 -6.22,-10.25 -10.46,-21.58 -12.5,-33.4 -4.64,-23.21 -2.31,-47.28 6.71,-69.18 2.48,-5.91 5.71,-11.49 9.59,-16.59 5.33,-7.23 12.58,-12.82 20.91,-16.16 12.72,-3.37 26.27,0.42 35.37,9.91 z m -321.85,294.67 c 2.96,2.55 5.36,5.69 7.06,9.21 0.9,2.56 0.51,5.41 -1.05,7.63 -1.57,2.23 -4.11,3.56 -6.83,3.58 -3.43,-0.05 -6.8,-0.91 -9.82,-2.53 -6.58,-3.42 -12.76,-7.55 -18.44,-12.33 -26.07,-20.85 -46.27,-48.12 -58.62,-79.14 -2.17,-5.21 -3.77,-10.62 -4.8,-16.17 -0.54,-2.63 -0.38,-5.36 0.44,-7.92 1.42,-3.18 4.72,-5.1 8.19,-4.75 3.04,0.58 5.77,2.2 7.74,4.58 3.76,4.48 6.87,9.48 9.23,14.84 6.64,14.52 14.59,28.41 23.77,41.48 10.3,12.43 21.86,23.76 34.51,33.8 2.95,2.48 5.83,5.06 8.62,7.72 z M 4306.9,2560.13 c 13.73,11.49 23.53,26.97 28.05,44.28 -1.75,3.61 -4.58,6.59 -8.1,8.5 -3.44,0.99 -7.04,1.28 -10.58,0.83 -5.3,-19.49 -18.8,-35.73 -37,-44.5 -18.2,-8.78 -39.31,-9.22 -57.86,-1.22 -11.39,4.66 -21.61,11.8 -29.91,20.89 -2.23,0.68 -4.65,0.38 -6.65,-0.84 -2,-1.2 -3.39,-3.2 -3.83,-5.5 -0.42,-4.44 1.09,-8.86 4.14,-12.12 3.04,-3.59 6.68,-6.61 10.76,-8.94 21.62,-11.7 45.92,-17.56 70.49,-16.99 14.82,0.75 29.01,6.22 40.49,15.61 z m -86.11,425.08 c -9.43,-0.61 -18.38,-4.37 -25.43,-10.66 -7.15,-6.26 -13.09,-13.78 -17.53,-22.17 -6.6,-12.35 -11.34,-25.61 -14.06,-39.35 -5.95,-29.89 -5.43,-60.71 1.54,-90.38 3.85,-17.75 10.96,-34.63 20.94,-49.79 5.21,-7.95 11.82,-14.88 19.53,-20.44 11.15,-8.35 25.81,-10.42 38.84,-5.47 8.56,3.75 16.03,9.6 21.72,17 7.18,9.23 12.79,19.57 16.61,30.62 10.89,32.03 13.37,66.32 7.19,99.58 -2.97,19.15 -9.28,37.64 -18.65,54.6 -5.07,9.26 -11.71,17.56 -19.62,24.55 -8.46,7.79 -19.58,12.06 -31.08,11.91 z M 5997.18,1701.87 C 5906.89,1320.48 5641.76,1004.14 5282.02,848.586 4922.28,693.031 4510.2,716.535 4170.48,911.988 c 14.82,10.692 28.61,22.75 41.18,36.02 23.1,25.379 45.15,51.703 66.08,78.902 29.01,38.05 58.46,75.77 88.36,113.13 7.34,10.69 14.92,21.21 22.74,31.56 3.52,4.48 7.84,8.28 12.73,11.2 7.81,3.93 16.9,4.43 25.08,1.36 8.01,-2.54 15.85,-5.6 23.46,-9.15 8.23,-3.84 16.6,-7.38 25.09,-10.61 23.55,-8.94 46.84,-18.54 69.84,-28.78 18.41,-8.1 37.06,-15.65 55.92,-22.63 11.25,-4.07 22.68,-7.65 34.24,-10.73 58.12,-15.23 117.72,-24.14 177.76,-26.57 23.22,-1.01 46.49,0.28 69.46,3.87 14.44,2.11 28.52,6.14 41.89,11.98 2.16,1.69 2.7,4.73 1.26,7.07 -2.67,4.07 -6.26,7.45 -10.48,9.88 -6.97,4.01 -14.64,6.67 -22.59,7.84 -15.1,1.88 -30.32,2.64 -45.52,2.24 -9.4,0.01 -18.78,0.53 -28.12,1.56 -27.04,3.07 -54.07,6.14 -81.11,9.2 -34.51,3.7 -68.77,9.5 -102.57,17.37 -76.27,18.69 -150.32,45.5 -220.88,79.99 -16.09,7.89 -31.62,16.9 -46.46,26.95 l 1182.79,779.65 c 3.51,-3.5 7.09,-6.95 10.74,-10.32 15.96,-15.42 33.51,-29.1 52.37,-40.81 -6.71,-10.02 -13.56,-19.95 -20.55,-29.77 -14.31,-19.63 -27.11,-40.31 -38.29,-61.87 -14.79,-28.81 -23.87,-60.2 -26.73,-92.46 -2.23,-22.63 0.34,-45.47 7.55,-67.03 8.54,-24.79 24.38,-46.41 45.43,-62.03 35.58,-25.92 80.66,-35.11 123.55,-25.19 21.13,4.9 41.86,11.37 62.03,19.36 27.12,10.94 53.76,23.03 79.86,36.24 28.09,14.44 56.63,28.02 85.56,40.7 12.51,-19.1 32.24,-32.31 54.66,-36.61 3.45,-0.62 6.9,-1.17 10.37,-1.63 z M 4284.39,3179.05 c 15.92,11.13 26.72,28.16 30.01,47.3 -1.65,3.31 -4.15,6.11 -7.24,8.13 -3.66,1.31 -7.59,1.73 -11.44,1.2 -3.1,-13.6 -10.33,-25.91 -20.69,-35.24 -6.08,-5.4 -13.92,-8.38 -22.05,-8.36 -6.41,0.27 -12.7,1.78 -18.53,4.46 -15.03,6.62 -28.52,16.31 -39.59,28.44 -3.69,-0.38 -7.24,-1.59 -10.39,-3.55 -1.79,-1.69 -2.81,-4.04 -2.82,-6.5 -0.12,-2.02 -0.14,-4.05 -0.06,-6.07 10.66,-14.15 24.74,-25.36 40.91,-32.58 11.88,-5.4 24.99,-7.5 37.96,-6.07 8.55,1.08 16.74,4.1 23.93,8.84 z m 213.94,564.37 c 1.42,-3.62 3.51,-6.95 6.15,-9.81 1.61,-1.84 4.07,-2.68 6.47,-2.21 4.37,1.45 7.32,5.53 7.33,10.13 0.28,3.71 0.07,7.44 -0.64,11.1 -6.08,30.6 -24.74,57.22 -51.43,73.37 -14.52,9.49 -30.28,16.91 -46.85,22.05 -3.53,1.18 -7.23,1.75 -10.95,1.69 -2.69,0.05 -5.19,-1.38 -6.5,-3.74 -1.82,-4.03 -0.64,-8.79 2.87,-11.49 2.58,-2.44 5.42,-4.59 8.48,-6.39 7.49,-4.19 15.06,-8.21 22.72,-12.06 8.94,-4.49 17.48,-9.7 25.56,-15.59 13.77,-10.39 24.23,-24.56 30.09,-40.78 2.26,-5.41 4.5,-10.83 6.7,-16.27 z M 6718.32,1677.97 c -11.61,9.22 -25.79,14.63 -40.59,15.49 -20.71,1.2 -40.69,8 -57.84,19.67 -12.69,7.38 -25.79,14.01 -39.25,19.87 -12.44,6.73 -25.13,12.99 -38.04,18.77 -4.67,3.15 -9.69,5.73 -14.97,7.71 -0.81,0.3 -1.54,0.81 -2.11,1.46 -4.34,4.82 -9.04,9.29 -14.07,13.38 -14.17,9.93 -29.19,18.59 -44.87,25.91 -11.47,8.33 -22.8,16.86 -33.97,25.59 -19.24,13.02 -40.79,22.28 -63.48,27.28 -11.89,2.78 -23.43,6.87 -34.42,12.2 -26.64,12.87 -57.51,13.7 -84.8,2.29 -7.56,-3 -15.12,-6 -22.67,-9.01 -13.02,-3.8 -26.04,-7.6 -39.05,-11.4 -12.34,-4.89 -24.21,-10.89 -35.46,-17.92 -8.95,-5.22 -18.62,-9.12 -28.69,-11.57 -20.94,-4.79 -41.31,-11.83 -60.73,-21.01 -16.53,-3.05 -31.48,-11.76 -42.28,-24.64 -6.98,0.26 -13.92,1 -20.78,2.22 -3.28,0.66 -6.14,2.62 -7.95,5.44 -2.45,4.22 -3.34,9.17 -2.49,13.98 0.53,6.41 4.2,12.15 9.8,15.32 6.39,3.39 13.06,6.21 19.94,8.43 5.93,2.53 12.23,4.1 18.66,4.62 6.87,0.39 13.52,2.63 19.22,6.5 2.79,1.49 5.11,3.74 6.67,6.48 0.44,0.99 0.42,2.13 -0.06,3.1 -3.3,6.7 -8.38,12.37 -14.68,16.39 -4.56,2.98 -9.93,4.46 -15.36,4.25 -5.26,-0.49 -10.39,-1.88 -15.18,-4.1 -7.59,-3.62 -15.03,-7.57 -22.27,-11.86 -12.2,-7.04 -25.14,-12.71 -38.6,-16.89 -15.46,-4.94 -30.78,-10.28 -45.95,-16.03 -33.22,-14.33 -65.95,-29.78 -98.12,-46.32 -24.15,-12.2 -48.8,-23.39 -73.89,-33.52 -16.69,-6.6 -33.86,-11.96 -51.35,-16.02 -22.35,-5.24 -45.88,-0.57 -64.54,12.8 -9.32,6.9 -16.35,16.44 -20.18,27.38 -3.95,11.95 -5.32,24.59 -4.04,37.11 2,23.09 8.46,45.56 19.03,66.18 9.55,18.39 20.48,36.03 32.71,52.77 15.61,21.62 30.32,43.87 44.11,66.7 6.32,8.98 12.27,18.22 17.82,27.7 3.28,5.99 5.59,12.46 6.86,19.17 1.29,9.04 1.02,18.22 -0.77,27.16 -2.47,12.13 -6.64,23.84 -12.4,34.8 -0.54,0.98 -1.47,1.67 -2.56,1.9 -1.09,0.24 -2.23,-0.02 -3.12,-0.69 -6.26,-3.68 -10.95,-9.55 -13.15,-16.47 -1.5,-4.93 -2.95,-9.88 -4.35,-14.84 -1.8,-7.12 -7,-12.89 -13.89,-15.43 -4.38,-1.86 -9.35,-1.7 -13.6,0.44 -3.04,1.59 -6.02,3.3 -8.93,5.12 -12.61,8.29 -24.44,17.69 -35.35,28.11 l 404.08,266.36 c 11.7,-0.41 23.41,-0.44 35.12,-0.11 13.31,-0.18 26.46,2.99 38.23,9.22 5.18,2.52 10.5,4.72 15.94,6.58 13.94,3.73 28.55,4.22 42.7,1.42 3.34,-0.63 6.41,-2.23 8.85,-4.61 1.29,-1.07 2.03,-2.68 2,-4.36 -0.03,-1.69 -0.83,-3.27 -2.17,-4.29 -8.39,-7.11 -17.7,-13.04 -27.69,-17.63 11.78,-3.46 23.9,-5.6 36.15,-6.39 9.98,-0.66 19.99,0.18 29.72,2.48 22.37,5.96 44.13,14.03 64.97,24.11 16.67,7.91 33.19,16.17 49.52,24.76 13.54,7.23 26.54,15.43 38.91,24.53 12.93,9.29 26.24,18.04 39.92,26.2 52.14,30.19 104.35,60.25 156.63,90.19 39.78,22.48 80.85,42.56 123.01,60.16 5.15,2.07 10.48,3.64 15.93,4.7 14.32,2.55 28.96,2.8 43.36,0.74 10.96,-1.4 21.87,-3.2 32.7,-5.4 8.29,-1.74 15.34,-7.14 19.19,-14.69 7.18,-13.19 6.3,-29.3 -2.27,-41.62 -12.53,-18.79 -27.04,-36.17 -43.28,-51.86 -16.79,-16.39 -34.6,-31.7 -53.33,-45.84 -21.09,-15.59 -42.19,-31.17 -63.3,-46.74 -17.28,-12.69 -33.72,-26.48 -49.2,-41.31 -16.1,-15.39 -30.1,-32.85 -41.63,-51.91 -17.73,-30.03 -30.62,-62.66 -38.2,-96.7 -2.58,-11.98 -2.32,-24.39 0.76,-36.25 3.12,-13.25 7.27,-26.24 12.42,-38.84 4.25,-9.77 12.44,-17.27 22.53,-20.65 4.24,-1.79 8.94,-2.18 13.42,-1.12 3.4,0.71 5.79,3.78 5.65,7.25 -0.51,4.07 -1.54,8.06 -3.06,11.88 -2.24,5.59 -3.83,11.41 -4.74,17.37 -0.2,1.59 0.01,3.2 0.6,4.69 1.91,3.02 5.19,4.9 8.76,5.01 9,0.66 18,1.22 27.01,1.68 22.92,1.37 45.91,0.83 68.73,-1.64 18.04,-2.3 36,-5.24 53.83,-8.82 40.69,-8.47 81.05,-18.42 121.01,-29.85 17.68,-4.79 35.1,-10.48 52.2,-17.06 38.65,-14.53 73.41,-37.81 101.55,-68.03 1.76,-1.92 2.84,-4.35 3.11,-6.93 0.25,-4.74 -1.34,-9.39 -4.45,-12.99 -10.43,-10.64 -21.72,-20.42 -33.75,-29.22 -16.7,-12.6 -36.44,-20.56 -57.21,-23.06 -18.86,-2.52 -37.92,-3.26 -56.91,-2.22 -32.16,0.57 -64.22,3.75 -95.85,9.54 -17.48,3.05 -35.06,5.52 -52.71,7.39 -33.35,3.35 -67.03,-0.45 -98.81,-11.12 -15.79,-5.14 -31.29,-11.14 -46.42,-17.98 -3.91,-1.55 -6.87,-4.85 -7.98,-8.92 -1.1,-4.06 -0.23,-8.41 2.36,-11.73 3.47,-4.27 7.53,-8.03 12.07,-11.15 9.32,-6.18 18.75,-12.2 28.28,-18.05 24.08,-17.12 48.3,-34.02 72.66,-50.73 16.9,-11.81 33.09,-24.59 48.49,-38.28 12.43,-11.08 23.82,-23.27 34.05,-36.42 7.42,-9.59 13.65,-20.05 18.55,-31.15 2.32,-5.32 3.14,-11.18 2.36,-16.94 -0.91,-7.2 -5.29,-13.5 -11.73,-16.86 -2.16,-1 -4.37,-1.93 -6.61,-2.76 z" /></g></g></g></g></svg>